<svg width="88" height="88" viewBox="0 0 88 88" fill="none" xmlns="http://www.w3.org/2000/svg">
<path d="M77 60.5C77 61.8934 76.23 63.1034 75.0567 63.7267L46.09 80.0067C45.5033 80.4467 44.77 80.6667 44 80.6667C43.23 80.6667 42.4967 80.4467 41.91 80.0067L12.9433 63.7267C11.77 63.1034 11 61.8934 11 60.5V27.5C11 26.1067 11.77 24.8967 12.9433 24.2734L41.91 7.99337C42.4967 7.55337 43.23 7.33337 44 7.33337C44.77 7.33337 45.5033 7.55337 46.09 7.99337L75.0567 24.2734C76.23 24.8967 77 26.1067 77 27.5V60.5ZM18.3333 33V55H22.9167V47.6667H25.6667C27.6116 47.6667 29.4768 46.8941 30.8521 45.5188C32.2274 44.1436 33 42.2783 33 40.3334C33 38.3885 32.2274 36.5232 30.8521 35.1479C29.4768 33.7727 27.6116 33 25.6667 33H18.3333ZM22.9167 44V36.6667H24.75C25.7225 36.6667 26.6551 37.053 27.3427 37.7407C28.0304 38.4283 28.4167 39.3609 28.4167 40.3334C28.4167 41.3058 28.0304 42.2385 27.3427 42.9261C26.6551 43.6137 25.7225 44 24.75 44H22.9167ZM35.75 33V55H40.3333V47.6667H43.0833L45.5033 55H50.3433L47.4467 46.2367C49.2433 44.9167 50.4167 42.7534 50.4167 40.3334C50.4167 38.3885 49.6441 36.5232 48.2688 35.1479C46.8935 33.7727 45.0283 33 43.0833 33H35.75ZM40.3333 44V36.6667H42.1667C43.1391 36.6667 44.0718 37.053 44.7594 37.7407C45.447 38.4283 45.8333 39.3609 45.8333 40.3334C45.8333 41.3058 45.447 42.2385 44.7594 42.9261C44.0718 43.6137 43.1391 44 42.1667 44H40.3333ZM62.3333 33C57.2733 33 53.1667 37.9134 53.1667 44C53.1667 50.0867 57.2733 55 62.3333 55C67.3933 55 71.5 50.0867 71.5 44C71.5 37.9134 67.3933 33 62.3333 33ZM62.3333 37.5834C65.12 37.5834 67.3933 40.4434 67.3933 44C67.3933 47.5567 65.12 50.4167 62.3333 50.4167C59.5467 50.4167 57.31 47.5567 57.31 44C57.31 40.4434 59.5467 37.5834 62.3333 37.5834Z" fill="#F77000"/>
</svg>
