<svg width="88" height="88" viewBox="0 0 88 88" fill="none" xmlns="http://www.w3.org/2000/svg">
<path d="M44 3.66663L11 18.3333V40.3333C11 60.6833 25.08 79.7133 44 84.3333C62.92 79.7133 77 60.6833 77 40.3333V18.3333L44 3.66663ZM44 11.66L69.6667 23.1V41.14C69.6667 47.3733 67.8333 53.7166 64.7167 59.29C58.6667 54.78 48.62 53.1666 44 53.1666C39.38 53.1666 29.3333 54.78 23.2833 59.29C20.1667 53.7166 18.3333 47.3733 18.3333 41.14V23.1L44 11.66ZM44 22C40.5964 22 37.3322 23.352 34.9255 25.7588C32.5187 28.1655 31.1667 31.4297 31.1667 34.8333C31.1667 38.2369 32.5187 41.5011 34.9255 43.9078C37.3322 46.3145 40.5964 47.6666 44 47.6666C47.4036 47.6666 50.6678 46.3145 53.0745 43.9078C55.4813 41.5011 56.8333 38.2369 56.8333 34.8333C56.8333 31.4297 55.4813 28.1655 53.0745 25.7588C50.6678 23.352 47.4036 22 44 22ZM44 29.3333C45.4587 29.3333 46.8576 29.9128 47.8891 30.9442C48.9205 31.9757 49.5 33.3746 49.5 34.8333C49.5 36.292 48.9205 37.6909 47.8891 38.7224C46.8576 39.7538 45.4587 40.3333 44 40.3333C42.5413 40.3333 41.1424 39.7538 40.1109 38.7224C39.0795 37.6909 38.5 36.292 38.5 34.8333C38.5 33.3746 39.0795 31.9757 40.1109 30.9442C41.1424 29.9128 42.5413 29.3333 44 29.3333ZM44 60.5C49.7567 60.5 57.3467 62.7366 60.61 65.4133C56.0633 71.06 50.2333 75.35 44 77C37.7667 75.35 31.9367 71.06 27.39 65.4133C30.69 62.7366 38.2433 60.5 44 60.5Z" fill="#F77000"/>
</svg>
