<svg width="88" height="88" viewBox="0 0 88 88" fill="none" xmlns="http://www.w3.org/2000/svg">
<path d="M40.3333 29.3333H47.6667V51.3333H40.3333V29.3333ZM55 3.66663H33V11H55V3.66663ZM44 73.3333C29.81 73.3333 18.3333 61.8566 18.3333 47.6666C18.3333 33.4766 29.81 22 44 22C58.19 22 69.6667 33.4766 69.6667 47.6666C72.2333 47.6666 74.6533 48.1433 77 48.95C77 48.51 77 48.1066 77 47.6666C77 39.8933 74.2867 32.7433 69.7767 27.0966L74.9833 21.89C73.3333 20.02 71.6833 18.3333 69.8133 16.72L64.6067 22C58.9233 17.38 51.7733 14.6666 44 14.6666C25.7767 14.6666 11 29.4433 11 47.6666C11 65.89 25.7767 80.6666 44 80.6666C46.1633 80.6666 48.2533 80.4466 50.27 80.0433C49.1333 77.9166 48.3267 75.5333 47.96 73.0033C46.64 73.1866 45.3567 73.3333 44 73.3333ZM78.2467 58.08L65.0833 71.2433L59.2533 65.4133L55 69.6666L65.0833 80.6666L82.5 63.25L78.2467 58.08Z" fill="#F77000"/>
</svg>
