<svg width="50" height="33" viewBox="0 0 50 33" fill="none" xmlns="http://www.w3.org/2000/svg">
<path d="M19.767 -0.000143676H16.6638C14.4658 0.0382844 12.2937 0.477271 10.2553 1.29498C8.38596 2.04281 6.69654 3.17409 5.29743 4.61488C3.90747 6.07342 2.82162 7.79064 2.10237 9.6677C1.33222 11.7144 0.952377 13.8856 0.982258 16.0704C0.950951 18.2612 1.3308 20.4387 2.10237 22.4913C2.81716 24.3651 3.90368 26.0772 5.29743 27.5259C6.69584 28.972 8.38511 30.1094 10.2553 30.864C12.2947 31.6759 14.4669 32.1087 16.6638 32.1409C18.5948 32.1438 20.5189 31.911 22.3929 31.4477C24.3657 30.9473 26.309 30.3384 28.2137 29.6236C28.9322 29.3068 29.5478 28.7978 29.992 28.1536C30.4363 27.5094 30.6915 26.7553 30.7294 25.9754V21.3968H34.0163C35.0262 23.2209 36.0361 25.0451 37.0277 26.8692L38.864 30.2256C39.2356 30.8157 39.7452 31.3079 40.3494 31.6604C40.9536 32.013 41.6346 32.2153 42.3345 32.2503H49.3122C48.0452 30.1526 46.7782 28.0001 45.4928 25.8477L41.6734 19.372C42.9889 18.463 44.0606 17.2481 44.795 15.8332C45.5593 14.3171 45.9436 12.64 45.9151 10.9446C45.9576 8.93933 45.4362 6.96206 44.4094 5.23509C43.4119 3.57519 41.9512 2.23824 40.2044 1.38619C38.2296 0.441969 36.0607 -0.032665 33.8694 -0.000143676H22.3929V24.0235C21.242 24.4529 20.0371 24.723 18.8122 24.8262C17.1669 24.969 15.511 24.7188 13.9829 24.0965C12.5596 23.5049 11.3542 22.4922 10.5307 21.1962C9.61958 19.6574 9.17337 17.8907 9.24535 16.1069C9.16436 14.299 9.6107 12.5064 10.5307 10.9446C11.3648 9.65766 12.5669 8.64767 13.9829 8.04423C15.5134 7.43067 17.1672 7.18081 18.8122 7.31459C19.1243 7.31459 19.4365 7.44227 19.767 7.47876V-0.000143676ZM36.6788 13.4801C36.4023 13.8311 36.0481 14.1141 35.6437 14.3071C35.2392 14.5001 34.7954 14.5978 34.3468 14.5928H30.6743V7.51524H33.8143C34.3138 7.48558 34.8142 7.55766 35.2847 7.72705C35.7552 7.89644 36.1859 8.15956 36.5503 8.50027C36.8755 8.82021 37.1337 9.20089 37.3102 9.62039C37.4867 10.0399 37.5779 10.4899 37.5786 10.9446C37.6145 11.8727 37.2927 12.7795 36.6788 13.4801Z" fill="white"/>
</svg>
