<svg width="88" height="88" viewBox="0 0 88 88" fill="none" xmlns="http://www.w3.org/2000/svg">
<path d="M77.3667 45.8333L82.5 51.0033L58.5567 75.1666L45.8333 62.3333L50.9667 57.1633L58.5567 64.79L77.3667 45.8333ZM40.3333 14.6666C44.2232 14.6666 47.9537 16.2119 50.7042 18.9624C53.4548 21.7129 55 25.4435 55 29.3333C55 33.2231 53.4548 36.9537 50.7042 39.7042C47.9537 42.4547 44.2232 44 40.3333 44C36.4435 44 32.713 42.4547 29.9624 39.7042C27.2119 36.9537 25.6667 33.2231 25.6667 29.3333C25.6667 25.4435 27.2119 21.7129 29.9624 18.9624C32.713 16.2119 36.4435 14.6666 40.3333 14.6666ZM40.3333 22C38.3884 22 36.5232 22.7726 35.1479 24.1478C33.7726 25.5231 33 27.3884 33 29.3333C33 31.2782 33.7726 33.1435 35.1479 34.5187C36.5232 35.894 38.3884 36.6666 40.3333 36.6666C42.2783 36.6666 44.1435 35.894 45.5188 34.5187C46.8941 33.1435 47.6667 31.2782 47.6667 29.3333C47.6667 27.3884 46.8941 25.5231 45.5188 24.1478C44.1435 22.7726 42.2783 22 40.3333 22ZM40.3333 47.6666C42.8267 47.6666 45.8333 47.9966 49.17 48.62L43.0467 54.7433L40.3333 54.6333C29.4433 54.6333 17.9667 59.9866 17.9667 62.3333V66.3666H40.7L47.6667 73.3333H11V62.3333C11 52.58 30.5433 47.6666 40.3333 47.6666Z" fill="#F77000"/>
</svg>
