<svg width="88" height="88" viewBox="0 0 88 88" fill="none" xmlns="http://www.w3.org/2000/svg">
<path d="M66 40.3333V45.8333C77.6967 45.8333 84.6633 58.85 78.21 68.6033L74.2133 64.6066C77.22 58.52 72.7833 51.3333 66 51.3333V56.8333L57.75 48.5833L66 40.3333ZM66 80.6666V75.1666C54.3033 75.1666 47.3367 62.15 53.79 52.3966L57.7867 56.3933C54.78 62.48 59.2167 69.6666 66 69.6666V64.1666L74.25 72.4166L66 80.6666ZM69.6667 11H66V3.66663H58.6667V11H29.3333V3.66663H22V11H18.3333C16.3884 11 14.5231 11.7726 13.1479 13.1478C11.7726 14.5231 11 16.3884 11 18.3333V69.6666C11 71.6115 11.7726 73.4768 13.1479 74.8521C14.5231 76.2273 16.3884 77 18.3333 77H51.3333C48.9867 74.9833 47.1533 72.49 45.8333 69.6666H18.3333V33H69.6667V38.83C72.27 39.2333 74.7633 40.1133 77 41.47V18.3333C77 16.3884 76.2274 14.5231 74.8521 13.1478C73.4768 11.7726 71.6116 11 69.6667 11ZM69.6667 25.6666H18.3333V18.3333H69.6667" fill="#F77000"/>
</svg>
