<svg width="88" height="88" viewBox="0 0 88 88" fill="none" xmlns="http://www.w3.org/2000/svg">
<path d="M62.7733 36.2267C60.72 34.1733 57.9333 33 55 33C52.0667 33 49.28 34.1733 47.2267 36.2267C45.1733 38.28 44 41.0667 44 44C44 46.9333 45.1733 49.72 47.2267 51.7733C49.28 53.8267 52.0667 55 55 55C57.9333 55 60.72 53.8267 62.7733 51.7733C64.8267 49.72 66 46.9333 66 44C66 41.0667 64.8267 38.28 62.7733 36.2267ZM25.6667 22V66H84.3333V22H25.6667ZM77 51.3333C75.0567 51.3333 73.1867 52.1033 71.83 53.4967C70.4367 54.8533 69.6667 56.7233 69.6667 58.6667H40.3333C40.3333 56.7233 39.5633 54.8533 38.17 53.4967C36.8133 52.1033 34.9433 51.3333 33 51.3333V36.6667C34.9433 36.6667 36.8133 35.8967 38.17 34.5033C39.5633 33.1467 40.3333 31.2767 40.3333 29.3333H69.6667C69.6667 31.2767 70.4367 33.1467 71.83 34.5033C73.1867 35.8967 75.0567 36.6667 77 36.6667V51.3333ZM18.3333 29.3333H11C8.98333 29.3333 7.33333 27.6833 7.33333 25.6667C7.33333 23.65 8.98333 22 11 22H18.3333V29.3333ZM18.3333 47.6667H7.33333C5.31667 47.6667 3.66667 46.0167 3.66667 44C3.66667 41.9833 5.31667 40.3333 7.33333 40.3333H18.3333V47.6667ZM18.3333 66H3.66667C1.64267 66 0 64.35 0 62.3333C0 60.3167 1.64267 58.6667 3.66667 58.6667H18.3333V66Z" fill="#F77000"/>
</svg>
