<svg width="88" height="88" viewBox="0 0 88 88" fill="none" xmlns="http://www.w3.org/2000/svg">
<path d="M14.6673 62.3333V33H7.33398V25.6666H22.0007V62.3333H14.6673ZM80.6673 55C80.6673 59.07 77.3673 62.3333 73.334 62.3333H58.6673V55H73.334V47.6666H66.0007V40.3333H73.334V33H58.6673V25.6666H73.334C75.2789 25.6666 77.1442 26.4392 78.5194 27.8145C79.8947 29.1898 80.6673 31.055 80.6673 33V38.5C80.6673 39.9587 80.0879 41.3576 79.0564 42.389C78.025 43.4205 76.626 44 75.1673 44C76.626 44 78.025 44.5794 79.0564 45.6109C80.0879 46.6423 80.6673 48.0413 80.6673 49.5V55ZM51.334 55V62.3333H29.334V47.6666C29.334 43.5966 32.634 40.3333 36.6673 40.3333H44.0007V33H29.334V25.6666H44.0007C45.9456 25.6666 47.8108 26.4392 49.1861 27.8145C50.5614 29.1898 51.334 31.055 51.334 33V40.3333C51.334 44.4033 48.034 47.6666 44.0007 47.6666H36.6673V55H51.334Z" fill="#F77000"/>
</svg>
