<svg width="88" height="88" viewBox="0 0 88 88" fill="none" xmlns="http://www.w3.org/2000/svg">
<path d="M36.666 40.3334C36.666 52.6534 31.716 56.6867 28.4527 58.0067C26.766 54.0834 22.8793 51.3334 18.3327 51.3334C15.4153 51.3334 12.6174 52.4923 10.5545 54.5552C8.49161 56.6181 7.33268 59.416 7.33268 62.3334C7.33268 65.2508 8.49161 68.0487 10.5545 70.1116C12.6174 72.1745 15.4153 73.3334 18.3327 73.3334C23.136 73.3334 27.206 70.29 28.7093 66L59.2893 66C60.7927 70.29 64.8627 73.3334 69.666 73.3334C72.5834 73.3334 75.3813 72.1744 77.4442 70.1115C79.5071 68.0486 80.666 65.2508 80.666 62.3334C80.666 59.416 79.5071 56.6181 77.4442 54.5552C75.3813 52.4923 72.5834 51.3334 69.666 51.3334C64.8627 51.3334 60.7927 54.3767 59.2893 58.6667L39.8927 58.6667C42.276 55.44 43.9993 50.7467 43.9993 44C43.9993 34.21 48.9127 30.9467 52.176 29.8834C53.826 33.8434 57.7493 36.6667 62.3327 36.6667C65.2501 36.6667 68.048 35.5078 70.1109 33.4449C72.1738 31.382 73.3327 28.5841 73.3327 25.6667C73.3327 22.7493 72.1738 19.9514 70.1109 17.8885C68.048 15.8256 65.2501 14.6667 62.3327 14.6667C57.4193 14.6667 53.166 17.8934 51.846 22.33C46.6027 23.2834 36.666 26.84 36.666 40.3334ZM21.9993 62.3334C21.9993 63.3058 21.613 64.2385 20.9254 64.9261C20.2378 65.6137 19.3051 66 18.3327 66C17.3602 66 16.4276 65.6137 15.74 64.9261C15.0523 64.2385 14.666 63.3058 14.666 62.3334C14.666 61.3609 15.0523 60.4283 15.74 59.7407C16.4276 59.053 17.3602 58.6667 18.3327 58.6667C19.3051 58.6667 20.2378 59.053 20.9254 59.7407C21.613 60.4283 21.9993 61.3609 21.9993 62.3334ZM73.3327 62.3334C73.3327 63.3058 72.9464 64.2385 72.2587 64.9261C71.5711 65.6137 70.6385 66 69.666 66C68.6936 66 67.7609 65.6137 67.0733 64.9261C66.3857 64.2385 65.9993 63.3058 65.9993 62.3334C65.9993 61.3609 66.3857 60.4283 67.0733 59.7406C67.7609 59.053 68.6936 58.6667 69.666 58.6667C70.6385 58.6667 71.5711 59.053 72.2587 59.7406C72.9464 60.4283 73.3327 61.3609 73.3327 62.3334ZM65.9993 25.6667C65.9993 26.6392 65.613 27.5718 64.9254 28.2594C64.2378 28.9471 63.3051 29.3334 62.3327 29.3334C61.3602 29.3334 60.4276 28.9471 59.74 28.2594C59.0523 27.5718 58.666 26.6392 58.666 25.6667C58.666 24.6942 59.0523 23.7616 59.74 23.074C60.4276 22.3863 61.3602 22 62.3327 22C63.3051 22 64.2378 22.3863 64.9254 23.074C65.613 23.7616 65.9993 24.6942 65.9993 25.6667Z" fill="#F77000"/>
</svg>
