<svg width="88" height="88" viewBox="0 0 88 88" fill="none" xmlns="http://www.w3.org/2000/svg">
<path d="M18.3333 22H84.3333V66H18.3333V22ZM51.3333 33C54.2507 33 57.0486 34.1589 59.1115 36.2218C61.1744 38.2847 62.3333 41.0826 62.3333 44C62.3333 46.9174 61.1744 49.7153 59.1115 51.7782C57.0486 53.8411 54.2507 55 51.3333 55C48.4159 55 45.618 53.8411 43.5551 51.7782C41.4922 49.7153 40.3333 46.9174 40.3333 44C40.3333 41.0826 41.4922 38.2847 43.5551 36.2218C45.618 34.1589 48.4159 33 51.3333 33ZM33 29.3333C33 31.2783 32.2273 33.1435 30.8521 34.5188C29.4768 35.894 27.6115 36.6667 25.6666 36.6667V51.3333C27.6115 51.3333 29.4768 52.106 30.8521 53.4812C32.2273 54.8565 33 56.7217 33 58.6667H69.6666C69.6666 56.7217 70.4392 54.8565 71.8145 53.4812C73.1898 52.106 75.055 51.3333 77 51.3333V36.6667C75.055 36.6667 73.1898 35.894 71.8145 34.5188C70.4392 33.1435 69.6666 31.2783 69.6666 29.3333H33ZM3.66663 36.6667H11V73.3333H69.6666V80.6667H3.66663V36.6667Z" fill="#F77000"/>
</svg>
