<svg width="88" height="88" viewBox="0 0 88 88" fill="none" xmlns="http://www.w3.org/2000/svg">
<path d="M65.6334 63.7633C64.68 60.83 61.93 58.6667 58.6667 58.6667H55V47.6667C55 46.6942 54.6137 45.7616 53.9261 45.0739C53.2385 44.3863 52.3058 44 51.3334 44H29.3334V36.6667H36.6667C37.6392 36.6667 38.5718 36.2804 39.2594 35.5927C39.9471 34.9051 40.3334 33.9725 40.3334 33V25.6667H47.6667C49.6116 25.6667 51.4769 24.894 52.8522 23.5188C54.2274 22.1435 55 20.2782 55 18.3333V16.83C65.7434 21.1567 73.3334 31.68 73.3334 44C73.3334 51.6267 70.4 58.5567 65.6334 63.7633ZM40.3334 73.0767C25.85 71.28 14.6667 58.96 14.6667 44C14.6667 41.7267 14.96 39.5267 15.4367 37.4367L33 55V58.6667C33 60.6116 33.7727 62.4768 35.1479 63.8521C36.5232 65.2274 38.3885 66 40.3334 66M44 7.33333C39.1849 7.33333 34.4169 8.28174 29.9683 10.1244C25.5197 11.9671 21.4776 14.6679 18.0728 18.0727C11.1965 24.9491 7.33337 34.2754 7.33337 44C7.33337 53.7246 11.1965 63.0509 18.0728 69.9272C21.4776 73.3321 25.5197 76.0329 29.9683 77.8756C34.4169 79.7183 39.1849 80.6667 44 80.6667C53.7246 80.6667 63.051 76.8036 69.9273 69.9272C76.8036 63.0509 80.6667 53.7246 80.6667 44C80.6667 39.1849 79.7183 34.4169 77.8756 29.9683C76.033 25.5197 73.3321 21.4776 69.9273 18.0727C66.5225 14.6679 62.4804 11.9671 58.0318 10.1244C53.5832 8.28174 48.8152 7.33333 44 7.33333Z" fill="#F77000"/>
</svg>
