<svg width="88" height="88" viewBox="0 0 88 88" fill="none" xmlns="http://www.w3.org/2000/svg">
<path d="M64.9367 22.55C64.02 19.7267 61.5634 19.1033 60.3167 17.49C59.1801 15.8033 59.3267 13.2733 56.9434 11.55C54.5601 9.82666 52.1767 10.7067 50.2334 10.1567C48.2901 9.60666 46.9701 7.33333 44.0001 7.33333C41.0301 7.33333 39.6734 9.45999 37.7667 10.1567C35.8601 10.8533 33.4767 9.79 31.0567 11.55C28.6367 13.31 28.8201 15.8033 27.6834 17.49C26.4367 19.1033 24.0167 19.7267 23.0634 22.55C22.1101 25.3733 23.8334 27.3167 23.8334 29.3333C23.8334 31.35 22.0001 33.2933 23.0634 36.1167C24.1267 38.94 26.4367 39.5633 27.6834 41.1767C28.8201 42.8633 28.6734 45.3933 31.0567 47.1167C33.4401 48.84 35.8234 47.96 37.7667 48.51C39.7101 49.06 41.0301 51.3333 44.0001 51.3333C46.9701 51.3333 48.3267 49.2067 50.2334 48.51C52.1401 47.8133 54.5234 48.8767 56.9434 47.1167C59.3634 45.3567 59.1801 42.8633 60.3167 41.1767C61.5634 39.5633 63.9834 38.94 64.9367 36.1167C65.89 33.2933 64.1667 31.35 64.1667 29.3333C64.1667 27.3167 66 25.3733 64.9367 22.55ZM44.0001 44C41.0993 44 38.2636 43.1398 35.8517 41.5282C33.4398 39.9166 31.5599 37.626 30.4498 34.946C29.3397 32.266 29.0493 29.3171 29.6152 26.472C30.1811 23.6269 31.578 21.0136 33.6292 18.9624C35.6803 16.9113 38.2937 15.5144 41.1387 14.9485C43.9838 14.3826 46.9328 14.673 49.6127 15.7831C52.2927 16.8932 54.5833 18.773 56.1949 21.185C57.8065 23.5969 58.6667 26.4325 58.6667 29.3333C58.6667 33.2232 57.1215 36.9537 54.371 39.7042C51.6204 42.4548 47.8899 44 44.0001 44ZM51.3334 29.3333C51.3334 30.7837 50.9033 32.2015 50.0975 33.4075C49.2917 34.6135 48.1464 35.5534 46.8064 36.1084C45.4664 36.6635 43.9919 36.8087 42.5694 36.5258C41.1469 36.2428 39.8402 35.5444 38.8146 34.5188C37.789 33.4932 37.0906 32.1865 36.8076 30.764C36.5247 29.3415 36.6699 27.867 37.2249 26.527C37.78 25.187 38.7199 24.0417 39.9259 23.2359C41.1318 22.4301 42.5497 22 44.0001 22C45.945 22 47.8102 22.7726 49.1855 24.1479C50.5608 25.5231 51.3334 27.3884 51.3334 29.3333ZM50.2701 57.0533L47.9601 70.2533L45.2834 85.3967L35.7134 76.2667L23.6134 81.5833L28.4901 54.0833C30.6391 55.1564 33.0188 55.6852 35.4201 55.6233C36.8925 56.7465 38.5575 57.5915 40.3334 58.1167C41.5204 58.4861 42.7569 58.6716 44.0001 58.6667C46.1936 58.6736 48.3523 58.1181 50.2701 57.0533ZM65.7067 68.86L56.2467 65.4867L58.1167 54.7067C59.2328 54.3168 60.2836 53.7605 61.2334 53.0567L61.6734 52.69L65.7067 68.86Z" fill="#F77000"/>
</svg>
