<svg xmlns="http://www.w3.org/2000/svg" width="27" height="19" viewBox="0 0 29 21" fill="none">
  <path d="M11.2159 0.500971H9.36317C8.05096 0.524801 6.75414 0.797023 5.53721 1.3041C4.42119 1.76784 3.41258 2.46936 2.57729 3.36282C1.74747 4.26728 1.09919 5.33216 0.66979 6.49616C0.210001 7.76533 -0.0167709 9.11173 0.00106801 10.4666C-0.0176226 11.8251 0.209154 13.1754 0.66979 14.4483C1.09653 15.6103 1.7452 16.672 2.57729 17.5703C3.41216 18.467 4.42068 19.1723 5.53721 19.6403C6.75478 20.1438 8.05162 20.4122 9.36317 20.4321C10.516 20.4339 11.6648 20.2896 12.7835 20.0023C13.9613 19.692 15.1215 19.3144 16.2587 18.8711C16.6876 18.6746 17.0551 18.3591 17.3203 17.9596C17.5855 17.5601 17.7379 17.0924 17.7606 16.6088V13.7696H19.7229C20.3258 14.9007 20.9288 16.0319 21.5207 17.1631L22.617 19.2444C22.8389 19.6103 23.1431 19.9156 23.5039 20.1342C23.8646 20.3528 24.2711 20.4783 24.6889 20.5H28.8548C28.0983 19.1992 27.3419 17.8644 26.5745 16.5296L24.2943 12.514C25.0797 11.9503 25.7195 11.1969 26.1579 10.3195C26.6143 9.37932 26.8437 8.33931 26.8267 7.28797C26.852 6.04448 26.5407 4.81834 25.9277 3.74742C25.3322 2.71809 24.4602 1.88903 23.4173 1.36066C22.2383 0.775132 20.9434 0.480804 19.6352 0.500971H12.7835V15.3984C12.0964 15.6647 11.3771 15.8322 10.6458 15.8962C9.66352 15.9847 8.67497 15.8296 7.76262 15.4437C6.9129 15.0768 6.19329 14.4489 5.70164 13.6451C5.15768 12.6909 4.89129 11.5953 4.93426 10.4892C4.8859 9.36811 5.15238 8.2565 5.70164 7.28797C6.19959 6.48993 6.91728 5.86362 7.76262 5.48942C8.67641 5.10893 9.6637 4.95399 10.6458 5.03695C10.8322 5.03695 11.0185 5.11613 11.2159 5.13875V0.500971ZM21.3125 8.86029C21.1474 9.07796 20.9359 9.25344 20.6944 9.3731C20.453 9.49277 20.188 9.55341 19.9202 9.55031H17.7277V5.16138H19.6023C19.9005 5.14299 20.1992 5.18768 20.4801 5.29272C20.761 5.39776 21.0181 5.56093 21.2357 5.77221C21.4298 5.97061 21.584 6.20668 21.6894 6.46682C21.7948 6.72696 21.8492 7.00603 21.8496 7.28797C21.8711 7.86353 21.679 8.42585 21.3125 8.86029Z" fill="white"/>
</svg>