<svg width="24" height="25" viewBox="0 0 24 25" fill="none" xmlns="http://www.w3.org/2000/svg">
<g id="account-circle">
<path id="Vector" d="M11.5 20.78C8.625 20.78 6.0835 19.308 4.6 17.1C4.6345 14.8 9.2 13.535 11.5 13.535C13.8 13.535 18.3655 14.8 18.4 17.1C16.9165 19.308 14.375 20.78 11.5 20.78ZM11.5 4.45C12.415 4.45 13.2925 4.81348 13.9395 5.46048C14.5865 6.10748 14.95 6.985 14.95 7.9C14.95 8.815 14.5865 9.69252 13.9395 10.3395C13.2925 10.9865 12.415 11.35 11.5 11.35C10.585 11.35 9.70748 10.9865 9.06048 10.3395C8.41348 9.69252 8.05 8.815 8.05 7.9C8.05 6.985 8.41348 6.10748 9.06048 5.46048C9.70748 4.81348 10.585 4.45 11.5 4.45ZM11.5 1C9.9898 1 8.49438 1.29746 7.09914 1.87539C5.7039 2.45331 4.43615 3.3004 3.36827 4.36827C1.2116 6.52494 0 9.45001 0 12.5C0 15.55 1.2116 18.4751 3.36827 20.6317C4.43615 21.6996 5.7039 22.5467 7.09914 23.1246C8.49438 23.7025 9.9898 24 11.5 24C14.55 24 17.4751 22.7884 19.6317 20.6317C21.7884 18.4751 23 15.55 23 12.5C23 6.1405 17.825 1 11.5 1Z" fill="white"/>
</g>
</svg>
