<svg width="18" height="18" viewBox="0 0 18 18" fill="none" xmlns="http://www.w3.org/2000/svg">
<path d="M11.25 3C12.0456 3 12.8087 3.31607 13.3713 3.87868C13.9339 4.44129 14.25 5.20435 14.25 6C14.25 6.79565 13.9339 7.55871 13.3713 8.12132C12.8087 8.68393 12.0456 9 11.25 9C10.4544 9 9.69129 8.68393 9.12868 8.12132C8.56607 7.55871 8.25 6.79565 8.25 6C8.25 5.20435 8.56607 4.44129 9.12868 3.87868C9.69129 3.31607 10.4544 3 11.25 3ZM11.25 4.425C10.8323 4.425 10.4317 4.59094 10.1363 4.88631C9.84094 5.18168 9.675 5.58228 9.675 6C9.675 6.41772 9.84094 6.81832 10.1363 7.11369C10.4317 7.40906 10.8323 7.575 11.25 7.575C12.12 7.575 12.825 6.87 12.825 6C12.825 5.13 12.12 4.425 11.25 4.425ZM11.25 9.75C13.2525 9.75 17.25 10.7475 17.25 12.75V15H5.25V12.75C5.25 10.7475 9.2475 9.75 11.25 9.75ZM11.25 11.175C9 11.175 6.675 12.27 6.675 12.75V13.575H15.825V12.75C15.825 12.27 13.4775 11.175 11.25 11.175ZM3.75 9.96L1.875 11.0775L2.385 8.97L0.75 7.56L2.9025 7.3725L3.75 5.3925L4.5825 7.3725L6.75 7.56L5.1 8.97L5.5875 11.0775L3.75 9.96Z" fill="#343A40"/>
</svg>
