<svg width="80" height="80" viewBox="0 0 80 80" fill="none" xmlns="http://www.w3.org/2000/svg">
<path d="M30 43.5C30 48.9333 34.4667 53.3333 40 53.3333C45.5333 53.3333 50 48.9333 50 43.5C50 39.1333 48.2333 37.8667 40 28.3333C31.6667 37.9333 30 39.1667 30 43.5ZM66.6667 43.3333C68.5 43.3333 70 41.8333 70 40C70 38.1667 68.5 36.6667 66.6667 36.6667H63.3333V16.6667H66.6667C68.5 16.6667 70 15.1667 70 13.3333C70 11.5 68.5 10 66.6667 10H13.3333C11.5 10 10 11.5 10 13.3333C10 15.1667 11.5 16.6667 13.3333 16.6667H16.6667V36.6667H13.3333C11.5 36.6667 10 38.1667 10 40C10 41.8333 11.5 43.3333 13.3333 43.3333H16.6667V63.3333H13.3333C11.5 63.3333 10 64.8333 10 66.6667C10 68.5 11.5 70 13.3333 70H66.6667C68.5 70 70 68.5 70 66.6667C70 64.8333 68.5 63.3333 66.6667 63.3333H63.3333V43.3333H66.6667ZM56.6667 63.3333H23.3333V43.3333C25.1667 43.3333 26.6667 41.8333 26.6667 40C26.6667 38.1667 25.1667 36.6667 23.3333 36.6667V16.6667H56.6667V36.6667C54.8333 36.6667 53.3333 38.1667 53.3333 40C53.3333 41.8333 54.8333 43.3333 56.6667 43.3333V63.3333Z" fill="#F77000"/>
</svg>
