<svg width="12" height="12" viewBox="0 0 12 12" fill="none" xmlns="http://www.w3.org/2000/svg">
<g clip-path="url(#clip0_80_2175)">
<path d="M11.5 6.00002L10.28 4.61002L10.45 2.77002L8.645 2.36002L7.7 0.77002L6 1.50002L4.3 0.77002L3.355 2.36002L1.55 2.76502L1.72 4.60502L0.5 6.00002L1.72 7.39002L1.55 9.23502L3.355 9.64502L4.3 11.235L6 10.5L7.7 11.23L8.645 9.64002L10.45 9.23002L10.28 7.39002L11.5 6.00002ZM5 8.50002L3 6.50002L3.705 5.79502L5 7.08502L8.295 3.79002L9 4.50002L5 8.50002Z" fill="#F77000"/>
</g>
<defs>
<clipPath id="clip0_80_2175">
<rect width="12" height="12" fill="white"/>
</clipPath>
</defs>
</svg>
