<svg width="60" height="60" viewBox="0 0 60 60" fill="none" xmlns="http://www.w3.org/2000/svg">
<path d="M42.65 28.925C44.125 27.2 45 25 45 22.5C45 17.85 41.825 13.925 37.5 12.825V7.5H32.5V12.5H27.5V7.5H22.5V12.5H15V17.5H20V42.5H15V47.5H22.5V52.5H27.5V47.5H32.5V52.5H37.5V47.5C43.025 47.5 47.5 43.025 47.5 37.5C47.5 33.875 45.55 30.675 42.65 28.925ZM25 17.5H35C37.75 17.5 40 19.75 40 22.5C40 25.25 37.75 27.5 35 27.5H25V17.5ZM37.5 42.5H25V32.5H37.5C40.25 32.5 42.5 34.75 42.5 37.5C42.5 40.25 40.25 42.5 37.5 42.5Z" fill="#F77000"/>
</svg>
