<svg width="80" height="80" viewBox="0 0 80 80" fill="none" xmlns="http://www.w3.org/2000/svg">
<path d="M40 66.6667C32.9276 66.6667 26.1448 63.8572 21.1438 58.8562C16.1429 53.8552 13.3334 47.0725 13.3334 40C13.3334 32.9276 16.1429 26.1448 21.1438 21.1438C26.1448 16.1429 32.9276 13.3334 40 13.3334C47.0725 13.3334 53.8552 16.1429 58.8562 21.1438C63.8572 26.1448 66.6667 32.9276 66.6667 40C66.6667 47.0725 63.8572 53.8552 58.8562 58.8562C53.8552 63.8572 47.0725 66.6667 40 66.6667ZM40 6.66669C35.6226 6.66669 31.2881 7.52888 27.2439 9.20404C23.1997 10.8792 19.5251 13.3345 16.4298 16.4298C10.1786 22.681 6.66669 31.1595 6.66669 40C6.66669 48.8406 10.1786 57.319 16.4298 63.5702C19.5251 66.6655 23.1997 69.1208 27.2439 70.796C31.2881 72.4712 35.6226 73.3334 40 73.3334C48.8406 73.3334 57.319 69.8215 63.5702 63.5702C69.8215 57.319 73.3334 48.8406 73.3334 40C73.3334 35.6226 72.4712 31.2881 70.796 27.2439C69.1208 23.1997 66.6655 19.5251 63.5702 16.4298C60.475 13.3345 56.8003 10.8792 52.7561 9.20404C48.7119 7.52888 44.3774 6.66669 40 6.66669Z" fill="#F77000"/>
<path d="M29.4444 46.3333H33.6666C33.6666 48.6133 36.5589 50.5556 40 50.5556C43.4411 50.5556 46.3333 48.6133 46.3333 46.3333C46.3333 44.0111 44.1378 43.1667 39.4933 42.0478C35.0178 40.9289 29.4444 39.5356 29.4444 33.6667C29.4444 29.8878 32.5478 26.6789 36.8333 25.6022V21H43.1666V25.6022C47.4522 26.6789 50.5555 29.8878 50.5555 33.6667H46.3333C46.3333 31.3867 43.4411 29.4444 40 29.4444C36.5589 29.4444 33.6666 31.3867 33.6666 33.6667C33.6666 35.9889 35.8622 36.8333 40.5066 37.9522C44.9822 39.0711 50.5555 40.4644 50.5555 46.3333C50.5555 50.1122 47.4522 53.3211 43.1666 54.3978V59H36.8333V54.3978C32.5478 53.3211 29.4444 50.1122 29.4444 46.3333Z" fill="#F77000"/>
</svg>
