<svg width="29" height="18" viewBox="0 0 29 18" fill="none" xmlns="http://www.w3.org/2000/svg">
<g clip-path="url(#clip0_360_780)">
<path d="M0 0H18V18H0V0Z" fill="#F8F9FD"/>
<path d="M11 4H18V0H11V4ZM0 18H18V14H0V18ZM11 11H18V7H11V11Z" fill="#EF5350"/>
<path d="M0 0H11V11H0V0Z" fill="#1E88E5"/>
<path d="M2.42002 1.22003C2.4276 1.20534 2.43907 1.19302 2.45318 1.18442C2.46729 1.17582 2.4835 1.17126 2.50002 1.17126C2.51655 1.17126 2.53276 1.17582 2.54687 1.18442C2.56098 1.19302 2.57245 1.20534 2.58002 1.22003L2.85002 1.93003C2.86002 1.97003 2.90002 1.99003 2.93002 1.99003L3.69002 2.03003C3.77002 2.03003 3.80002 2.13003 3.74002 2.19003L3.14002 2.66003C3.12697 2.67272 3.11806 2.68907 3.11449 2.70693C3.11092 2.72478 3.11285 2.7433 3.12002 2.76003L3.32002 3.48003C3.32611 3.49829 3.32619 3.51803 3.32024 3.53633C3.31428 3.55464 3.30262 3.57055 3.28696 3.58174C3.27129 3.59293 3.25246 3.5988 3.23321 3.59849C3.21396 3.59819 3.19532 3.59172 3.18002 3.58003L2.55002 3.17003C2.53522 3.16014 2.51782 3.15487 2.50002 3.15487C2.48222 3.15487 2.46482 3.16014 2.45002 3.17003L1.82002 3.58003C1.80473 3.59172 1.78608 3.59819 1.76684 3.59849C1.74759 3.5988 1.72875 3.59293 1.71309 3.58174C1.69743 3.57055 1.68576 3.55464 1.67981 3.53633C1.67386 3.51803 1.67393 3.49829 1.68002 3.48003L1.88002 2.75003C1.88604 2.73231 1.88638 2.71316 1.88101 2.69524C1.87563 2.67732 1.8648 2.66152 1.85002 2.65003L1.26002 2.19003C1.2459 2.17871 1.23552 2.16339 1.23023 2.14607C1.22495 2.12876 1.22502 2.11025 1.23042 2.09297C1.23582 2.07569 1.2463 2.06044 1.2605 2.04921C1.27471 2.03798 1.29196 2.0313 1.31002 2.03003L2.07002 1.99003C2.10002 1.99003 2.14002 1.97003 2.15002 1.93003L2.42002 1.23003V1.22003ZM2.42002 4.22003C2.4276 4.20534 2.43907 4.19302 2.45318 4.18442C2.46729 4.17582 2.4835 4.17126 2.50002 4.17126C2.51655 4.17126 2.53276 4.17582 2.54687 4.18442C2.56098 4.19302 2.57245 4.20534 2.58002 4.22003L2.85002 4.93003C2.86002 4.97003 2.90002 4.99003 2.93002 4.99003L3.69002 5.03003C3.77002 5.03003 3.80002 5.13003 3.74002 5.19003L3.14002 5.66003C3.12697 5.67272 3.11806 5.68907 3.11449 5.70693C3.11092 5.72478 3.11285 5.7433 3.12002 5.76003L3.32002 6.48003C3.32611 6.49829 3.32619 6.51803 3.32024 6.53633C3.31428 6.55464 3.30262 6.57055 3.28696 6.58174C3.27129 6.59293 3.25246 6.5988 3.23321 6.59849C3.21396 6.59819 3.19532 6.59172 3.18002 6.58003L2.55002 6.17003C2.53522 6.16014 2.51782 6.15487 2.50002 6.15487C2.48222 6.15487 2.46482 6.16014 2.45002 6.17003L1.82002 6.58003C1.80473 6.59172 1.78608 6.59819 1.76684 6.59849C1.74759 6.5988 1.72875 6.59293 1.71309 6.58174C1.69743 6.57055 1.68576 6.55464 1.67981 6.53633C1.67386 6.51803 1.67393 6.49829 1.68002 6.48003L1.88002 5.75003C1.88604 5.73231 1.88638 5.71316 1.88101 5.69524C1.87563 5.67732 1.8648 5.66152 1.85002 5.65003L1.26002 5.19003C1.2459 5.17871 1.23552 5.16339 1.23023 5.14607C1.22495 5.12876 1.22502 5.11025 1.23042 5.09297C1.23582 5.07569 1.2463 5.06044 1.2605 5.04921C1.27471 5.03798 1.29196 5.0313 1.31002 5.03003L2.07002 4.99003C2.10002 4.99003 2.14002 4.97003 2.15002 4.93003L2.42002 4.23003V4.22003ZM2.42002 7.22003C2.4276 7.20534 2.43907 7.19302 2.45318 7.18442C2.46729 7.17582 2.4835 7.17126 2.50002 7.17126C2.51655 7.17126 2.53276 7.17582 2.54687 7.18442C2.56098 7.19302 2.57245 7.20534 2.58002 7.22003L2.85002 7.93003C2.86002 7.97003 2.90002 7.99003 2.93002 7.99003L3.69002 8.03003C3.77002 8.03003 3.80002 8.13003 3.74002 8.19003L3.14002 8.66003C3.12697 8.67272 3.11806 8.68907 3.11449 8.70693C3.11092 8.72478 3.11285 8.7433 3.12002 8.76003L3.32002 9.48003C3.32611 9.49829 3.32619 9.51803 3.32024 9.53633C3.31428 9.55464 3.30262 9.57055 3.28696 9.58174C3.27129 9.59293 3.25246 9.5988 3.23321 9.59849C3.21396 9.59819 3.19532 9.59172 3.18002 9.58003L2.55002 9.17003C2.53522 9.16014 2.51782 9.15487 2.50002 9.15487C2.48222 9.15487 2.46482 9.16014 2.45002 9.17003L1.82002 9.58003C1.80473 9.59172 1.78608 9.59819 1.76684 9.59849C1.74759 9.5988 1.72875 9.59293 1.71309 9.58174C1.69743 9.57055 1.68576 9.55464 1.67981 9.53633C1.67386 9.51803 1.67393 9.49829 1.68002 9.48003L1.88002 8.75003C1.88604 8.73231 1.88638 8.71316 1.88101 8.69524C1.87563 8.67732 1.8648 8.66151 1.85002 8.65003L1.26002 8.19003C1.2459 8.17871 1.23552 8.16339 1.23023 8.14607C1.22495 8.12876 1.22502 8.11025 1.23042 8.09297C1.23582 8.07569 1.2463 8.06044 1.2605 8.04921C1.27471 8.03798 1.29196 8.0313 1.31002 8.03003L2.07002 7.99003C2.10002 7.99003 2.14002 7.97003 2.15002 7.93003L2.42002 7.23003V7.22003ZM5.42002 1.22003C5.4276 1.20534 5.43907 1.19302 5.45318 1.18442C5.46729 1.17582 5.4835 1.17126 5.50002 1.17126C5.51655 1.17126 5.53276 1.17582 5.54687 1.18442C5.56098 1.19302 5.57245 1.20534 5.58002 1.22003L5.85002 1.93003C5.86002 1.97003 5.90002 1.99003 5.93002 1.99003L6.69002 2.03003C6.77002 2.03003 6.80002 2.13003 6.74002 2.19003L6.14002 2.66003C6.12697 2.67272 6.11806 2.68907 6.11449 2.70693C6.11092 2.72478 6.11285 2.7433 6.12002 2.76003L6.32002 3.48003C6.32611 3.49829 6.32619 3.51803 6.32024 3.53633C6.31428 3.55464 6.30262 3.57055 6.28696 3.58174C6.27129 3.59293 6.25246 3.5988 6.23321 3.59849C6.21396 3.59819 6.19532 3.59172 6.18002 3.58003L5.55002 3.17003C5.53522 3.16014 5.51782 3.15487 5.50002 3.15487C5.48222 3.15487 5.46482 3.16014 5.45002 3.17003L4.82002 3.58003C4.80473 3.59172 4.78608 3.59819 4.76684 3.59849C4.74759 3.5988 4.72875 3.59293 4.71309 3.58174C4.69743 3.57055 4.68576 3.55464 4.67981 3.53633C4.67386 3.51803 4.67393 3.49829 4.68002 3.48003L4.88002 2.75003C4.88604 2.73231 4.88638 2.71316 4.88101 2.69524C4.87563 2.67732 4.8648 2.66152 4.85002 2.65003L4.26002 2.19003C4.2459 2.17871 4.23552 2.16339 4.23023 2.14607C4.22495 2.12876 4.22502 2.11025 4.23042 2.09297C4.23582 2.07569 4.2463 2.06044 4.2605 2.04921C4.27471 2.03798 4.29196 2.0313 4.31002 2.03003L5.07002 1.99003C5.10002 1.99003 5.14002 1.97003 5.15002 1.93003L5.42002 1.23003V1.22003ZM5.42002 4.22003C5.4276 4.20534 5.43907 4.19302 5.45318 4.18442C5.46729 4.17582 5.4835 4.17126 5.50002 4.17126C5.51655 4.17126 5.53276 4.17582 5.54687 4.18442C5.56098 4.19302 5.57245 4.20534 5.58002 4.22003L5.85002 4.93003C5.86002 4.97003 5.90002 4.99003 5.93002 4.99003L6.69002 5.03003C6.77002 5.03003 6.80002 5.13003 6.74002 5.19003L6.14002 5.66003C6.12697 5.67272 6.11806 5.68907 6.11449 5.70693C6.11092 5.72478 6.11285 5.7433 6.12002 5.76003L6.32002 6.48003C6.32611 6.49829 6.32619 6.51803 6.32024 6.53633C6.31428 6.55464 6.30262 6.57055 6.28696 6.58174C6.27129 6.59293 6.25246 6.5988 6.23321 6.59849C6.21396 6.59819 6.19532 6.59172 6.18002 6.58003L5.55002 6.17003C5.53522 6.16014 5.51782 6.15487 5.50002 6.15487C5.48222 6.15487 5.46482 6.16014 5.45002 6.17003L4.82002 6.58003C4.80473 6.59172 4.78608 6.59819 4.76684 6.59849C4.74759 6.5988 4.72875 6.59293 4.71309 6.58174C4.69743 6.57055 4.68576 6.55464 4.67981 6.53633C4.67386 6.51803 4.67393 6.49829 4.68002 6.48003L4.88002 5.75003C4.88604 5.73231 4.88638 5.71316 4.88101 5.69524C4.87563 5.67732 4.8648 5.66152 4.85002 5.65003L4.26002 5.19003C4.2459 5.17871 4.23552 5.16339 4.23023 5.14607C4.22495 5.12876 4.22502 5.11025 4.23042 5.09297C4.23582 5.07569 4.2463 5.06044 4.2605 5.04921C4.27471 5.03798 4.29196 5.0313 4.31002 5.03003L5.07002 4.99003C5.10002 4.99003 5.14002 4.97003 5.15002 4.93003L5.42002 4.23003V4.22003ZM5.42002 7.22003C5.4276 7.20534 5.43907 7.19302 5.45318 7.18442C5.46729 7.17582 5.4835 7.17126 5.50002 7.17126C5.51655 7.17126 5.53276 7.17582 5.54687 7.18442C5.56098 7.19302 5.57245 7.20534 5.58002 7.22003L5.85002 7.93003C5.86002 7.97003 5.90002 7.99003 5.93002 7.99003L6.69002 8.03003C6.77002 8.03003 6.80002 8.13003 6.74002 8.19003L6.14002 8.66003C6.12697 8.67272 6.11806 8.68907 6.11449 8.70693C6.11092 8.72478 6.11285 8.7433 6.12002 8.76003L6.32002 9.48003C6.32611 9.49829 6.32619 9.51803 6.32024 9.53633C6.31428 9.55464 6.30262 9.57055 6.28696 9.58174C6.27129 9.59293 6.25246 9.5988 6.23321 9.59849C6.21396 9.59819 6.19532 9.59172 6.18002 9.58003L5.55002 9.17003C5.53522 9.16014 5.51782 9.15487 5.50002 9.15487C5.48222 9.15487 5.46482 9.16014 5.45002 9.17003L4.82002 9.58003C4.80473 9.59172 4.78608 9.59819 4.76684 9.59849C4.74759 9.5988 4.72875 9.59293 4.71309 9.58174C4.69743 9.57055 4.68576 9.55464 4.67981 9.53633C4.67386 9.51803 4.67393 9.49829 4.68002 9.48003L4.88002 8.75003C4.88604 8.73231 4.88638 8.71316 4.88101 8.69524C4.87563 8.67732 4.8648 8.66151 4.85002 8.65003L4.26002 8.19003C4.2459 8.17871 4.23552 8.16339 4.23023 8.14607C4.22495 8.12876 4.22502 8.11025 4.23042 8.09297C4.23582 8.07569 4.2463 8.06044 4.2605 8.04921C4.27471 8.03798 4.29196 8.0313 4.31002 8.03003L5.07002 7.99003C5.10002 7.99003 5.14002 7.97003 5.15002 7.93003L5.42002 7.23003V7.22003ZM8.42002 1.22003C8.4276 1.20534 8.43907 1.19302 8.45318 1.18442C8.46729 1.17582 8.4835 1.17126 8.50002 1.17126C8.51655 1.17126 8.53276 1.17582 8.54687 1.18442C8.56098 1.19302 8.57245 1.20534 8.58002 1.22003L8.85002 1.93003C8.86002 1.97003 8.90002 1.99003 8.93002 1.99003L9.69002 2.03003C9.77002 2.03003 9.80002 2.13003 9.74002 2.19003L9.14002 2.66003C9.12697 2.67272 9.11806 2.68907 9.11449 2.70693C9.11092 2.72478 9.11285 2.7433 9.12002 2.76003L9.32002 3.48003C9.32611 3.49829 9.32619 3.51803 9.32024 3.53633C9.31428 3.55464 9.30262 3.57055 9.28696 3.58174C9.27129 3.59293 9.25246 3.5988 9.23321 3.59849C9.21396 3.59819 9.19532 3.59172 9.18002 3.58003L8.55002 3.17003C8.53522 3.16014 8.51782 3.15487 8.50002 3.15487C8.48222 3.15487 8.46482 3.16014 8.45002 3.17003L7.82002 3.58003C7.80473 3.59172 7.78608 3.59819 7.76684 3.59849C7.74759 3.5988 7.72875 3.59293 7.71309 3.58174C7.69743 3.57055 7.68576 3.55464 7.67981 3.53633C7.67386 3.51803 7.67393 3.49829 7.68002 3.48003L7.88002 2.75003C7.88604 2.73231 7.88638 2.71316 7.88101 2.69524C7.87563 2.67732 7.8648 2.66152 7.85002 2.65003L7.26002 2.19003C7.2459 2.17871 7.23552 2.16339 7.23023 2.14607C7.22495 2.12876 7.22502 2.11025 7.23042 2.09297C7.23582 2.07569 7.2463 2.06044 7.2605 2.04921C7.27471 2.03798 7.29196 2.0313 7.31002 2.03003L8.07002 1.99003C8.10002 1.99003 8.14002 1.97003 8.15002 1.93003L8.42002 1.23003V1.22003ZM8.42002 4.22003C8.4276 4.20534 8.43907 4.19302 8.45318 4.18442C8.46729 4.17582 8.4835 4.17126 8.50002 4.17126C8.51655 4.17126 8.53276 4.17582 8.54687 4.18442C8.56098 4.19302 8.57245 4.20534 8.58002 4.22003L8.85002 4.93003C8.86002 4.97003 8.90002 4.99003 8.93002 4.99003L9.69002 5.03003C9.77002 5.03003 9.80002 5.13003 9.74002 5.19003L9.14002 5.66003C9.12697 5.67272 9.11806 5.68907 9.11449 5.70693C9.11092 5.72478 9.11285 5.7433 9.12002 5.76003L9.32002 6.48003C9.32611 6.49829 9.32619 6.51803 9.32024 6.53633C9.31428 6.55464 9.30262 6.57055 9.28696 6.58174C9.27129 6.59293 9.25246 6.5988 9.23321 6.59849C9.21396 6.59819 9.19532 6.59172 9.18002 6.58003L8.55002 6.17003C8.53522 6.16014 8.51782 6.15487 8.50002 6.15487C8.48222 6.15487 8.46482 6.16014 8.45002 6.17003L7.82002 6.58003C7.80473 6.59172 7.78608 6.59819 7.76684 6.59849C7.74759 6.5988 7.72875 6.59293 7.71309 6.58174C7.69743 6.57055 7.68576 6.55464 7.67981 6.53633C7.67386 6.51803 7.67393 6.49829 7.68002 6.48003L7.88002 5.75003C7.88604 5.73231 7.88638 5.71316 7.88101 5.69524C7.87563 5.67732 7.8648 5.66152 7.85002 5.65003L7.26002 5.19003C7.2459 5.17871 7.23552 5.16339 7.23023 5.14607C7.22495 5.12876 7.22502 5.11025 7.23042 5.09297C7.23582 5.07569 7.2463 5.06044 7.2605 5.04921C7.27471 5.03798 7.29196 5.0313 7.31002 5.03003L8.07002 4.99003C8.10002 4.99003 8.14002 4.97003 8.15002 4.93003L8.42002 4.23003V4.22003ZM8.42002 7.22003C8.4276 7.20534 8.43907 7.19302 8.45318 7.18442C8.46729 7.17582 8.4835 7.17126 8.50002 7.17126C8.51655 7.17126 8.53276 7.17582 8.54687 7.18442C8.56098 7.19302 8.57245 7.20534 8.58002 7.22003L8.85002 7.93003C8.86002 7.97003 8.90002 7.99003 8.93002 7.99003L9.69002 8.03003C9.77002 8.03003 9.80002 8.13003 9.74002 8.19003L9.14002 8.66003C9.12697 8.67272 9.11806 8.68907 9.11449 8.70693C9.11092 8.72478 9.11285 8.7433 9.12002 8.76003L9.32002 9.48003C9.32611 9.49829 9.32619 9.51803 9.32024 9.53633C9.31428 9.55464 9.30262 9.57055 9.28696 9.58174C9.27129 9.59293 9.25246 9.5988 9.23321 9.59849C9.21396 9.59819 9.19532 9.59172 9.18002 9.58003L8.55002 9.17003C8.53522 9.16014 8.51782 9.15487 8.50002 9.15487C8.48222 9.15487 8.46482 9.16014 8.45002 9.17003L7.82002 9.58003C7.80473 9.59172 7.78608 9.59819 7.76684 9.59849C7.74759 9.5988 7.72875 9.59293 7.71309 9.58174C7.69743 9.57055 7.68576 9.55464 7.67981 9.53633C7.67386 9.51803 7.67393 9.49829 7.68002 9.48003L7.88002 8.75003C7.88604 8.73231 7.88638 8.71316 7.88101 8.69524C7.87563 8.67732 7.8648 8.66151 7.85002 8.65003L7.26002 8.19003C7.2459 8.17871 7.23552 8.16339 7.23023 8.14607C7.22495 8.12876 7.22502 8.11025 7.23042 8.09297C7.23582 8.07569 7.2463 8.06044 7.2605 8.04921C7.27471 8.03798 7.29196 8.0313 7.31002 8.03003L8.07002 7.99003C8.10002 7.99003 8.14002 7.97003 8.15002 7.93003L8.42002 7.23003V7.22003Z" fill="#F8F9FD"/>
</g>
<rect x="0.5" y="0.5" width="17" height="17" rx="8.5" stroke="white"/>
<g clip-path="url(#clip1_360_780)">
<path d="M11 0H29V18H11V0Z" fill="#1565C0"/>
<path d="M19.95 2L20.32 3.14H21.52L20.55 3.84L20.92 4.98L19.95 4.28L18.99 4.98L19.35 3.85L18.39 3.15H19.59L19.94 2H19.95ZM15.04 4.04L16.11 4.58L16.95 3.74L16.77 4.92L17.83 5.46L16.65 5.65L16.46 6.83L15.92 5.77L14.74 5.95L15.58 5.11L15.04 4.04ZM13 8.95L14.14 8.58V7.38L14.84 8.35L15.99 8L15.29 8.96L15.99 9.93L14.86 9.56L14.16 10.53V9.33L13 8.95ZM15.04 13.86L15.58 12.8L14.74 11.95L15.92 12.14L16.46 11.07L16.65 12.26L17.83 12.44L16.77 12.99L16.95 14.17L16.11 13.32L15.04 13.86ZM19.95 15.9L19.58 14.76H18.38L19.35 14.06L19 12.92L19.96 13.62L20.93 12.92L20.56 14.06L21.53 14.76H20.33L19.96 15.9H19.95ZM24.86 13.86L23.8 13.32L22.95 14.17L23.14 12.99L22.07 12.44L23.26 12.26L23.44 11.07L23.99 12.14L25.17 11.95L24.32 12.8L24.86 13.86ZM26.9 8.95L25.76 9.32V10.52L25.06 9.55L23.92 9.92L24.62 8.95L23.92 7.99L25.06 8.35L25.76 7.39V8.59L26.9 8.95ZM24.86 4.04L24.32 5.11L25.17 5.95L23.99 5.77L23.44 6.83L23.26 5.65L22.07 5.46L23.14 4.92L22.95 3.74L23.8 4.58L24.86 4.04Z" fill="#FDD835"/>
</g>
<rect x="11.5" y="0.5" width="17" height="17" rx="8.5" stroke="white"/>
<defs>
<clipPath id="clip0_360_780">
<rect width="18" height="18" rx="9" fill="white"/>
</clipPath>
<clipPath id="clip1_360_780">
<rect x="11" width="18" height="18" rx="9" fill="white"/>
</clipPath>
</defs>
</svg>
