<svg width="64" height="64" viewBox="0 0 64 64" fill="none" xmlns="http://www.w3.org/2000/svg">
<path d="M29.333 48H34.6663V42.6667H29.333V48ZM31.9997 5.33334C28.4978 5.33334 25.0301 6.02309 21.7948 7.36321C18.5594 8.70334 15.6197 10.6676 13.1435 13.1438C8.14252 18.1448 5.33301 24.9276 5.33301 32C5.33301 39.0724 8.14252 45.8552 13.1435 50.8562C15.6197 53.3324 18.5594 55.2967 21.7948 56.6368C25.0301 57.9769 28.4978 58.6667 31.9997 58.6667C39.0721 58.6667 45.8549 55.8572 50.8559 50.8562C55.8568 45.8552 58.6663 39.0724 58.6663 32C58.6663 28.4981 57.9766 25.0305 56.6365 21.7951C55.2963 18.5598 53.3321 15.6201 50.8559 13.1438C48.3796 10.6676 45.4399 8.70334 42.2046 7.36321C38.9692 6.02309 35.5016 5.33334 31.9997 5.33334ZM31.9997 53.3333C20.2397 53.3333 10.6663 43.76 10.6663 32C10.6663 20.24 20.2397 10.6667 31.9997 10.6667C43.7597 10.6667 53.333 20.24 53.333 32C53.333 43.76 43.7597 53.3333 31.9997 53.3333ZM31.9997 16C29.1707 16 26.4576 17.1238 24.4572 19.1242C22.4568 21.1246 21.333 23.8377 21.333 26.6667H26.6663C26.6663 25.2522 27.2282 23.8956 28.2284 22.8954C29.2286 21.8952 30.5852 21.3333 31.9997 21.3333C33.4142 21.3333 34.7707 21.8952 35.7709 22.8954C36.7711 23.8956 37.333 25.2522 37.333 26.6667C37.333 32 29.333 31.3333 29.333 40H34.6663C34.6663 34 42.6663 33.3333 42.6663 26.6667C42.6663 23.8377 41.5425 21.1246 39.5421 19.1242C37.5418 17.1238 34.8286 16 31.9997 16Z" fill="#F77000"/>
</svg>
