<svg width="32" height="32" viewBox="0 0 32 32" fill="none" xmlns="http://www.w3.org/2000/svg">
<path d="M14.667 24H17.3337V21.3333H14.667V24ZM16.0003 2.66663C14.2494 2.66663 12.5156 3.0115 10.8979 3.68157C9.2802 4.35163 7.81035 5.33375 6.57224 6.57187C4.07175 9.07235 2.66699 12.4637 2.66699 16C2.66699 19.5362 4.07175 22.9276 6.57224 25.4281C7.81035 26.6662 9.2802 27.6483 10.8979 28.3184C12.5156 28.9884 14.2494 29.3333 16.0003 29.3333C19.5365 29.3333 22.9279 27.9285 25.4284 25.4281C27.9289 22.9276 29.3337 19.5362 29.3337 16C29.3337 14.249 28.9888 12.5152 28.3187 10.8975C27.6487 9.27984 26.6665 7.80998 25.4284 6.57187C24.1903 5.33375 22.7204 4.35163 21.1028 3.68157C19.4851 3.0115 17.7513 2.66663 16.0003 2.66663ZM16.0003 26.6666C10.1203 26.6666 5.33366 21.88 5.33366 16C5.33366 10.12 10.1203 5.33329 16.0003 5.33329C21.8803 5.33329 26.667 10.12 26.667 16C26.667 21.88 21.8803 26.6666 16.0003 26.6666ZM16.0003 7.99996C14.5858 7.99996 13.2293 8.56186 12.2291 9.56206C11.2289 10.5623 10.667 11.9188 10.667 13.3333H13.3337C13.3337 12.626 13.6146 11.9478 14.1147 11.4477C14.6148 10.9476 15.2931 10.6666 16.0003 10.6666C16.7076 10.6666 17.3858 10.9476 17.8859 11.4477C18.386 11.9478 18.667 12.626 18.667 13.3333C18.667 16 14.667 15.6666 14.667 20H17.3337C17.3337 17 21.3337 16.6666 21.3337 13.3333C21.3337 11.9188 20.7718 10.5623 19.7716 9.56206C18.7714 8.56186 17.4148 7.99996 16.0003 7.99996Z" fill="#343A40"/>
</svg>
