<svg width="1440" height="1896" viewBox="0 0 1440 1896" fill="none" xmlns="http://www.w3.org/2000/svg">
<g filter="url(#filter0_d_702_8577)">
<path d="M1946.02 369.739C1923.07 456.719 1894 542.019 1859.19 625.976C1843.89 663.253 1826.68 700.866 1796.84 730.754C1720.73 806.651 1587.23 809.338 1473.25 792.547C1368.44 777.434 1265.55 751.24 1167.63 714.635C1070.86 678.365 976.765 632.021 873.108 616.573C769.068 601.125 648.581 625.976 592.353 704.224C559.076 750.904 553.721 809.674 566.726 863.742C579.731 917.475 609.566 967.177 642.843 1013.86C680.711 1067.25 724.698 1121.32 730.436 1184.12C736.173 1249.27 695.246 1315.77 630.221 1347C537.656 1391.66 424.054 1363.45 320.014 1347C188.052 1325.84 46.1445 1326.18 -74.3427 1377.56C-194.83 1429.28 -288.16 1541.44 -275.92 1658.98" stroke="#183059" stroke-miterlimit="10"/>
<path d="M1922.69 352.276C1900.12 437.241 1871.81 520.862 1837.39 602.468C1822.09 638.738 1805.26 675.679 1776.19 704.56C1701.98 779.114 1572.7 783.144 1462.16 769.039C1435.76 765.68 1409.75 761.651 1383.74 756.949C1308.77 743.18 1235.33 723.702 1164.57 698.515C1069.71 664.932 977.913 621.274 876.55 607.17C775.188 593.065 660.438 618.924 601.533 691.463C579.348 719 564.048 748.217 557.546 780.121C553.338 801.95 552.191 824.45 554.868 846.615C556.016 857.026 557.928 867.101 560.606 877.511C570.933 918.482 592.353 958.782 616.068 997.066C618.363 1000.76 620.658 1004.79 623.336 1008.48C660.438 1067.25 699.453 1127.03 701.748 1192.85C703.661 1255.99 665.793 1320.47 602.298 1351.36C512.029 1395.36 401.869 1370.17 301.271 1356.07C293.239 1355.06 285.207 1354.05 277.557 1353.04C156.687 1338.94 30.462 1344.65 -77.0203 1393.68C-191.77 1445.73 -279.745 1555.55 -265.592 1669.73" stroke="#183059" stroke-miterlimit="10"/>
<path d="M1898.97 334.813C1877.17 417.763 1848.86 499.369 1815.2 578.96C1800.29 614.558 1783.46 650.156 1755.15 678.701C1682.86 751.576 1558.16 757.285 1450.68 745.531C1425.05 742.844 1399.81 739.15 1374.56 735.12C1301.89 723.03 1229.98 705.231 1160.75 682.395C1068.18 651.499 978.295 610.864 879.228 598.102C780.161 585.341 671.148 611.871 609.566 679.373C584.703 706.575 564.431 733.441 553.721 764.337C546.453 785.494 542.246 807.995 541.864 830.831C541.864 841.242 542.628 851.988 544.158 863.071C550.661 906.392 572.081 950.386 595.413 992.029C597.708 996.059 600.003 1000.09 602.298 1004.45C638.636 1068.26 672.678 1134.08 671.148 1202.59C669.618 1264.05 634.428 1326.18 572.463 1356.4C484.489 1399.72 377.771 1377.22 280.616 1365.81C272.967 1364.8 265.317 1364.13 257.667 1363.45C141.004 1352.37 20.1346 1360.77 -81.9927 1410.13C-191.005 1462.86 -273.242 1569.99 -257.942 1680.81" stroke="#183059" stroke-miterlimit="10"/>
<path d="M1875.64 317.35C1854.22 398.285 1826.68 477.876 1793.4 555.788C1778.48 590.378 1762.04 625.304 1734.5 653.178C1664.12 724.374 1543.63 732.098 1439.21 722.695C1414.34 720.344 1389.86 717.657 1365 713.963C1294.24 703.552 1224.62 687.768 1156.92 666.611C1066.65 638.402 978.678 600.789 881.906 589.035C785.133 577.617 681.476 604.819 617.981 666.947C590.441 694.149 565.196 717.993 549.896 748.217C539.569 768.703 532.301 790.868 529.241 814.711C528.094 825.458 527.711 836.54 528.094 847.958C530.771 893.631 552.191 941.319 574.759 986.32C577.053 990.685 579.349 995.051 581.644 999.753C616.833 1068.93 646.668 1139.79 641.313 1212C637.106 1271.1 603.446 1331.55 543.394 1361.44C458.096 1404.09 354.439 1384.61 260.727 1375.54C253.459 1374.87 245.809 1374.2 238.542 1373.87C126.087 1365.81 10.5721 1376.89 -86.2002 1426.59C-189.475 1479.65 -265.975 1584.77 -249.145 1691.89" stroke="#183059" stroke-miterlimit="10"/>
<path d="M1852.31 299.551C1831.65 378.471 1804.49 456.383 1771.6 531.944C1757.06 565.527 1740.62 599.446 1713.84 626.648C1645.37 696.5 1529.48 705.567 1428.11 698.515C1404.02 696.836 1379.92 694.485 1356.2 691.463C1287.35 682.731 1219.65 668.962 1153.48 649.82C1065.5 624.297 979.443 589.371 884.965 579.296C790.488 568.885 691.421 597.095 626.778 654.186C596.178 681.052 566.343 702.209 546.453 731.426C533.066 751.24 522.356 773.404 517.001 797.584C514.324 808.666 512.794 820.085 512.794 832.174C511.646 880.198 533.066 931.58 555.251 979.939C557.546 984.64 559.841 989.342 561.753 994.379C596.178 1068.6 621.423 1144.83 612.243 1220.39C605.358 1277.48 573.611 1335.92 515.089 1365.47C432.086 1407.45 331.871 1390.66 241.602 1384.61C234.334 1384.28 227.449 1383.6 220.182 1383.27C111.934 1378.23 1.77448 1392 -89.2603 1442.04C-186.798 1495.43 -257.942 1598.2 -239.2 1701.97" stroke="#183059" stroke-miterlimit="10"/>
<path d="M1828.97 282.088C1808.7 359.329 1782.31 434.89 1749.8 508.436C1735.26 541.012 1719.2 574.259 1693.19 600.789C1626.63 668.962 1514.94 680.044 1417.02 675.343C1393.69 674.335 1370.36 672.32 1347.41 669.969C1280.47 662.917 1214.68 650.827 1150.42 634.036C1064.74 611.2 980.59 579.296 888.408 570.229C796.608 561.161 700.983 589.371 635.576 641.76C601.916 668.626 567.491 687.097 543.393 715.306C526.946 734.448 513.176 756.613 505.144 781.464C501.319 792.883 498.641 804.972 497.494 817.398C492.521 867.772 513.558 922.848 535.743 974.23C538.038 979.267 539.951 984.304 542.246 989.342C575.906 1068.93 596.561 1150.2 583.173 1229.46C573.993 1284.53 543.393 1340.95 486.783 1370.17C406.076 1411.48 309.304 1397.37 222.094 1394.01C215.209 1393.68 208.324 1393.68 201.439 1393.34C97.3993 1391.33 -7.40545 1407.78 -93.0853 1458.49C-184.503 1512.56 -250.292 1612.64 -230.402 1713.39" stroke="#183059" stroke-miterlimit="10"/>
<path d="M1805.64 264.625C1786.13 339.85 1760.12 413.397 1727.99 484.928C1713.84 516.832 1697.78 548.736 1672.53 574.93C1607.89 641.424 1500.79 654.186 1405.55 651.835C1382.98 651.163 1360.41 650.156 1337.84 648.141C1273.2 643.103 1208.94 632.693 1146.21 617.58C1062.45 597.431 980.59 568.549 891.085 560.825C801.581 553.101 709.398 581.311 643.991 629.334C607.271 656.201 567.874 671.649 539.569 698.851C520.061 717.321 503.231 739.486 492.139 764.673C487.166 776.427 483.341 788.853 481.046 801.95C472.631 854.675 493.286 913.445 514.706 968.185C517.001 973.558 518.914 978.931 521.209 984.305C553.721 1068.93 570.551 1155.24 552.956 1238.19C541.864 1291.25 512.411 1345.66 457.331 1374.54C378.919 1415.17 285.589 1404.09 201.822 1403.08C195.319 1403.08 188.434 1403.08 181.932 1403.08C82.0994 1404.43 -17.3504 1423.23 -97.6752 1474.28C-183.355 1528.68 -243.407 1626.41 -221.987 1723.8" stroke="#183059" stroke-miterlimit="10"/>
<path d="M1781.93 246.826C1763.18 320.037 1737.17 391.904 1705.81 461.42C1691.66 492.317 1675.97 523.213 1651.49 548.736C1589.15 613.886 1485.87 628.327 1394.07 628.327C1372.27 628.327 1350.47 627.655 1328.66 626.648C1265.93 623.289 1203.59 614.894 1142.77 601.796C1061.3 584.333 981.355 558.475 894.145 551.758C806.936 545.041 708.251 563.848 652.406 616.909C607.271 637.058 568.639 656.201 536.126 682.731C513.559 700.53 493.669 722.359 479.899 748.553C473.779 760.643 468.806 773.405 465.746 787.174C453.506 842.249 474.161 904.713 495.199 962.812C497.111 968.521 499.406 974.23 501.319 979.939C533.066 1069.94 545.689 1161.29 523.504 1247.93C510.499 1298.64 482.194 1351.7 428.644 1379.57C352.909 1419.54 262.639 1411.14 182.314 1412.82C175.812 1412.82 169.692 1413.16 163.189 1413.49C67.182 1417.86 -26.5303 1439.35 -101.5 1490.73C-181.443 1545.47 -236.14 1640.85 -212.807 1734.88" stroke="#183059" stroke-miterlimit="10"/>
<path d="M1758.59 229.363C1740.23 300.559 1714.99 370.411 1684.01 437.912C1670.24 467.801 1654.55 498.026 1630.84 522.877C1570.4 586.348 1471.34 602.468 1382.98 604.819C1361.94 605.49 1340.9 605.49 1319.87 604.819C1259.05 603.14 1198.61 596.423 1139.33 585.341C1060.15 570.564 982.12 547.392 897.205 542.355C812.29 536.982 716.666 554.78 661.203 604.483C612.626 623.625 569.786 641.088 532.684 666.275C507.439 683.738 483.724 705.231 467.659 731.762C460.009 743.852 454.271 757.285 450.064 771.725C433.999 829.152 454.654 895.646 475.309 956.767C477.221 962.812 479.516 968.856 481.429 974.901C512.411 1069.94 521.591 1166.32 494.434 1256.66C479.899 1305.36 451.976 1356.4 400.339 1383.94C326.899 1423.57 240.072 1417.86 163.189 1421.89C157.069 1422.22 150.949 1422.56 144.829 1423.23C53.0295 1430.62 -35.3278 1454.46 -104.943 1506.52C-179.148 1561.93 -228.107 1654.62 -203.627 1745.29" stroke="#183059" stroke-miterlimit="10"/>
<path d="M1735.26 211.9C1717.67 281.081 1692.8 348.918 1662.2 414.404C1648.43 443.621 1633.13 472.503 1610.18 497.018C1551.66 558.81 1457.18 576.945 1371.5 581.311C1351.23 582.318 1330.96 582.99 1310.3 582.99C1251.78 582.99 1192.88 578.288 1135.5 569.221C1058.62 557.131 982.503 536.982 899.883 532.952C817.645 528.922 725.081 545.713 669.236 591.722C617.216 609.52 570.168 625.304 528.476 649.82C500.171 666.611 473.396 688.104 454.271 715.306C445.474 727.732 438.206 741.501 433.234 756.613C413.344 816.391 433.999 886.579 453.889 951.058C455.801 957.438 457.714 963.819 459.626 970.2C489.844 1070.61 495.199 1171.7 463.451 1266.06C447.769 1312.74 420.229 1361.78 370.121 1388.98C298.976 1427.93 215.592 1424.91 142.152 1431.96C136.414 1432.64 130.677 1432.97 124.939 1433.64C37.347 1444.05 -45.6553 1470.58 -109.533 1522.97C-178 1578.72 -221.222 1669.06 -195.212 1756.37" stroke="#183059" stroke-miterlimit="10"/>
<path d="M1711.93 194.101C1694.72 261.603 1670.62 327.425 1640.4 390.896C1627.01 419.106 1611.71 447.316 1589.53 470.823C1532.92 531.273 1442.65 550.751 1360.41 557.803C1340.9 559.482 1321.4 560.49 1301.51 561.161C1244.9 562.84 1188.29 560.154 1132.06 553.101C1057.47 543.698 983.268 526.571 902.943 523.884C823.001 521.198 733.496 536.982 678.033 579.632C622.188 596.423 571.316 610.192 525.416 634.036C494.051 650.156 464.216 671.649 442.414 699.187C432.469 711.948 424.054 726.053 417.934 741.837C394.219 803.965 414.874 877.847 434.381 945.684C436.294 952.401 438.206 959.117 440.119 965.834C469.189 1071.62 471.866 1177.74 434.381 1275.47C417.551 1319.8 390.394 1367.15 341.816 1394.01C272.967 1432.3 193.024 1432.3 123.027 1441.7C117.672 1442.37 111.934 1443.38 106.579 1444.05C23.1946 1457.49 -54.4527 1486.7 -112.975 1539.76C-175.705 1596.18 -213.572 1683.83 -186.033 1768.13" stroke="#183059" stroke-miterlimit="10"/>
<path d="M1688.21 176.638C1671.77 242.125 1648.05 305.932 1617.83 367.388C1604.45 394.59 1589.91 421.793 1568.11 444.965C1513.41 503.735 1427.73 525.228 1348.55 534.295C1329.81 536.646 1310.69 538.325 1291.94 539.332C1237.25 542.691 1182.55 541.683 1128.23 536.646C1055.56 529.929 983.267 515.824 905.62 514.145C827.973 512.466 741.528 527.914 686.448 566.534C627.161 582.318 572.081 594.408 521.591 616.909C487.166 632.357 454.271 653.514 429.791 682.059C418.699 695.157 409.136 709.597 402.251 726.053C374.711 790.532 394.984 868.108 414.491 939.304C416.404 946.356 418.316 953.408 420.229 960.461C448.534 1071.28 448.151 1182.78 405.311 1283.86C387.334 1326.18 360.176 1371.51 313.511 1398.04C247.339 1435.66 170.457 1438.34 103.519 1450.43C98.1643 1451.44 92.8093 1452.45 87.8368 1453.46C8.65944 1469.91 -63.6329 1501.82 -116.8 1555.21C-173.41 1611.97 -205.923 1697.27 -176.853 1778.2" stroke="#183059" stroke-miterlimit="10"/>
<path d="M1664.88 159.175C1648.82 222.647 1625.87 284.439 1596.03 343.88C1583.03 370.411 1568.49 396.606 1547.45 419.106C1494.67 476.197 1413.2 499.369 1337.08 511.123C1319.1 513.809 1300.74 516.16 1282.76 517.839C1230.36 522.877 1177.19 523.884 1124.41 520.862C1054.03 516.832 983.65 505.414 908.298 505.414C832.945 505.078 749.943 519.519 694.481 554.78C631.368 569.557 572.081 579.632 517.383 601.461C479.898 616.237 443.561 637.394 416.404 666.611C403.781 680.044 393.454 694.821 385.421 711.612C354.439 778.442 374.329 859.712 393.071 933.93C394.984 941.319 396.896 948.707 398.426 956.095C425.966 1072.29 423.289 1188.82 374.329 1293.6C355.586 1334.24 328.429 1377.22 283.676 1403.42C219.799 1440.36 146.359 1445.73 82.8643 1460.51C77.8918 1461.52 72.9193 1462.86 67.9468 1464.2C-7.02301 1483.68 -73.9604 1518.27 -121.773 1572C-172.645 1629.09 -199.42 1712.04 -168.82 1789.62" stroke="#183059" stroke-miterlimit="10"/>
<path d="M1641.55 141.712C1626.25 203.168 1603.3 263.282 1574.23 320.372C1561.22 345.895 1547.07 371.082 1527.18 392.911C1476.31 448.659 1399.04 473.51 1326.37 487.279C1309.16 490.637 1291.56 493.324 1273.97 495.675C1223.48 502.391 1172.22 505.414 1121.35 504.406C1053.27 503.063 984.798 494.667 911.74 495.675C839.065 496.682 764.095 518.847 703.661 541.683C640.931 565.191 573.611 563.512 514.706 584.333C474.161 598.438 434.764 619.595 404.929 649.148C391.159 662.917 379.684 678.029 370.504 695.492C335.696 764.673 355.586 849.637 373.946 927.214C375.859 934.938 377.389 942.662 379.301 950.386C406.076 1071.62 401.104 1193.53 345.641 1301.66C325.751 1340.28 298.594 1381.59 255.754 1406.78C194.172 1443.05 124.174 1451.44 64.1219 1468.57C59.5319 1469.91 54.5595 1471.26 49.9695 1472.93C-20.7929 1495.77 -82.3753 1532.71 -124.45 1586.78C-169.585 1644.54 -191.005 1724.81 -158.875 1799.02" stroke="#183059" stroke-miterlimit="10"/>
<path d="M1618.22 123.913C1603.3 183.69 1581.11 241.453 1552.43 296.865C1539.8 321.38 1525.65 345.895 1506.53 367.053C1457.57 421.121 1384.89 447.651 1315.28 464.107C1298.83 468.137 1282 471.495 1265.17 474.518C1216.59 482.913 1167.25 487.615 1117.91 488.622C1052.12 489.966 985.563 484.592 914.801 486.943C844.421 488.958 771.746 509.78 712.076 529.593C645.139 551.758 574.376 548.736 510.881 568.55C467.276 581.983 424.819 603.14 392.306 633.364C377.389 647.133 364.384 663.253 354.821 681.052C316.189 752.583 336.079 841.242 354.057 922.176C355.969 930.236 357.499 938.296 359.029 946.356C384.656 1072.96 378.154 1200.58 316.189 1311.74C295.534 1348.34 268.377 1387.63 227.067 1412.49C168.162 1448.08 101.224 1459.17 44.6146 1479.32C40.0246 1480.99 35.8171 1482.67 31.2271 1484.35C-35.7103 1510.21 -91.5552 1549.84 -128.275 1604.24C-167.673 1662.34 -183.355 1740.25 -149.695 1811.11" stroke="#183059" stroke-miterlimit="10"/>
<path d="M1594.88 106.45C1580.73 164.212 1558.93 219.96 1530.62 273.357C1518 296.865 1504.23 320.372 1485.87 341.194C1438.82 393.583 1370.36 421.793 1303.8 440.599C1288.12 444.965 1272.05 448.995 1255.99 452.689C1209.32 462.764 1161.89 469.48 1114.46 472.503C1050.97 476.533 986.328 474.182 918.243 477.54C850.158 480.898 779.778 500.04 721.256 517.168C650.111 537.989 575.906 533.288 507.821 552.094C461.539 564.855 415.639 586.013 380.449 616.573C364.384 630.678 350.231 647.133 339.521 665.604C297.064 739.486 316.954 831.839 334.166 916.132C336.079 924.527 337.609 932.923 339.139 941.319C364.001 1072.96 355.969 1206.62 286.737 1320.47C265.699 1355.39 238.159 1392.34 198.379 1416.85C141.769 1452.11 78.2745 1465.88 25.1071 1488.38C20.8996 1490.06 16.6921 1492.08 12.4846 1493.76C-50.2452 1522.64 -100.735 1564.95 -132.1 1620.03C-165.76 1678.46 -175.705 1754.36 -140.515 1821.86" stroke="#183059" stroke-miterlimit="10"/>
<path d="M1571.17 88.9869C1557.78 144.734 1536.36 198.803 1508.44 249.849C1496.2 272.685 1482.43 295.185 1464.83 314.999C1420.08 366.045 1355.82 395.934 1292.33 416.755C1277.41 421.792 1262.11 426.494 1246.43 430.524C1202.06 442.614 1156.54 450.674 1110.26 455.711C1048.67 462.428 986.327 462.764 920.538 467.801C854.748 472.503 786.663 489.63 728.906 504.07C653.553 522.877 575.906 517.168 503.613 535.302C454.271 547.728 404.929 568.214 367.061 599.781C349.466 614.222 334.549 631.013 322.691 650.156C276.409 726.389 296.299 822.435 313.129 910.086C314.659 918.818 316.571 927.55 318.101 936.281C342.199 1073.3 333.401 1213 256.519 1329.54C234.716 1362.78 206.794 1397.37 168.927 1421.55C114.612 1456.14 54.9418 1472.6 4.83444 1497.79C1.00945 1499.8 -3.19806 1501.82 -7.02306 1503.83C-65.5454 1535.73 -110.68 1580.74 -136.69 1636.15C-164.613 1695.25 -169.203 1768.46 -132.483 1832.61" stroke="#183059" stroke-miterlimit="10"/>
<path d="M1547.84 71.188C1534.83 124.921 1514.18 176.974 1486.64 226.005C1474.4 247.834 1461.01 269.327 1444.18 288.805C1401.34 338.171 1341.29 369.739 1281.23 393.247C1267.08 398.956 1252.16 403.994 1237.63 408.695C1195.17 422.464 1151.57 432.539 1107.2 439.591C1047.91 448.995 987.475 452.353 923.98 458.398C860.868 464.443 795.078 479.555 738.086 491.645C658.908 508.436 577.436 502.055 500.553 519.183C448.151 530.937 395.749 551.422 355.204 583.326C336.461 598.102 320.396 615.229 307.774 635.043C258.049 713.627 277.174 813.368 294.004 904.377C295.534 913.445 297.064 922.512 298.594 931.58C321.926 1073.63 312.364 1220.06 227.832 1338.6C205.264 1370.17 177.342 1402.41 141.004 1426.25C88.9843 1460.17 32.7569 1479.31 -14.2905 1507.19C-18.1155 1509.54 -21.558 1511.55 -25.383 1513.91C-79.6979 1548.83 -119.478 1596.52 -140.133 1652.27C-161.935 1711.71 -161.17 1782.57 -122.92 1843.35" stroke="#183059" stroke-miterlimit="10"/>
<path d="M1524.5 53.725C1512.26 105.442 1491.61 155.481 1464.83 202.833C1452.98 223.654 1439.59 244.475 1423.52 262.946C1382.6 310.633 1327.13 344.216 1269.76 369.739C1255.99 375.784 1242.22 381.493 1228.45 386.866C1187.91 402.314 1146.21 414.404 1103.37 423.472C1046.38 435.561 987.858 441.942 926.658 449.33C865.841 456.383 802.346 469.816 746.501 479.219C663.116 493.324 577.819 486.607 497.111 502.727C441.649 513.809 386.187 534.295 342.964 566.87C323.074 581.982 305.862 599.446 292.092 619.931C238.542 700.866 257.667 804.301 273.732 898.332C275.262 907.736 276.792 917.139 278.322 926.542C300.507 1073.97 290.944 1227.11 197.997 1347.67C175.047 1377.56 146.359 1407.45 111.934 1430.96C62.5921 1464.2 9.42471 1486.37 -34.1802 1516.59C-37.6227 1518.94 -41.0652 1521.29 -44.1252 1523.98C-94.2326 1561.93 -128.658 1612.3 -143.575 1668.39C-159.64 1728.16 -153.138 1796.67 -113.358 1854.1" stroke="#183059" stroke-miterlimit="10"/>
<path d="M1501.17 36.262C1489.31 86.3004 1469.42 134.324 1443.03 179.325C1431.17 199.474 1418.17 218.952 1402.87 237.087C1363.85 283.431 1312.6 318.358 1258.67 346.567C1245.66 353.284 1232.66 359.664 1219.27 365.374C1181.02 382.501 1140.86 396.27 1099.93 407.352C1045.23 422.128 988.623 431.532 929.718 439.927C871.195 448.323 810.378 459.405 754.916 466.794C667.323 478.212 578.583 471.159 493.286 486.607C434.764 497.018 375.859 517.504 329.959 550.415C308.921 565.863 290.179 583.662 275.644 604.819C218.269 688.104 237.394 795.233 253.077 892.624C254.607 902.363 256.137 912.102 257.284 921.841C278.704 1074.31 269.524 1234.83 167.779 1356.74C144.064 1385.28 115.377 1412.49 82.4819 1435.32C35.4345 1467.9 -14.2904 1492.75 -54.4528 1526C-57.5128 1528.68 -60.5728 1531.37 -63.6328 1534.06C-109.533 1575.36 -138.603 1627.75 -148.165 1684.84C-158.493 1745.29 -146.635 1811.11 -105.325 1865.18" stroke="#183059" stroke-miterlimit="10"/>
<path d="M1477.46 18.7989C1466.36 66.8223 1446.86 112.831 1420.85 155.817C1409.37 174.959 1396.37 193.429 1381.83 211.228C1344.73 255.894 1297.68 292.835 1247.19 323.059C1234.95 330.447 1222.71 337.164 1210.09 343.545C1173.75 362.351 1135.5 378.135 1096.1 391.232C1043.7 408.695 989.005 420.785 932.395 430.524C876.168 440.263 818.41 448.995 763.331 454.032C671.913 462.428 579.348 455.711 489.461 469.816C427.879 479.555 365.914 499.705 317.336 533.623C294.769 549.071 275.261 567.542 259.962 589.371C198.762 675.007 217.887 785.83 233.187 886.579C234.717 896.653 236.247 906.393 237.394 916.467C258.049 1074.31 249.252 1242.56 138.709 1365.47C114.229 1392.34 85.5418 1417.52 54.1769 1439.69C9.42445 1471.59 -36.8579 1499.46 -73.5779 1535.06C-76.6379 1537.75 -79.3153 1540.77 -81.9928 1543.79C-124.068 1588.12 -147.4 1643.2 -151.608 1700.63C-156.198 1761.41 -138.603 1824.88 -95.7628 1875.59" stroke="#183059" stroke-miterlimit="10"/>
<path d="M1454.12 1C1423.91 131.637 1326.37 246.826 1200.91 321.716C1075.45 396.605 923.598 433.882 771.745 441.606C676.503 446.644 580.113 440.263 486.019 453.696C391.924 467.129 295.916 503.735 244.279 574.258C179.254 662.245 198.379 776.763 212.914 880.869C237.012 1052.14 237.012 1243.9 108.874 1374.54C44.9969 1439.69 -45.2729 1483.34 -101.118 1553.87C-179.148 1651.59 -173.028 1794.32 -86.9653 1886.67" stroke="#183059" stroke-miterlimit="10"/>
</g>
<defs>
<filter id="filter0_d_702_8577" x="-281.5" y="0.887329" width="2232" height="1894.13" filterUnits="userSpaceOnUse" color-interpolation-filters="sRGB">
<feFlood flood-opacity="0" result="BackgroundImageFix"/>
<feColorMatrix in="SourceAlpha" type="matrix" values="0 0 0 0 0 0 0 0 0 0 0 0 0 0 0 0 0 0 127 0" result="hardAlpha"/>
<feOffset dy="4"/>
<feGaussianBlur stdDeviation="2"/>
<feComposite in2="hardAlpha" operator="out"/>
<feColorMatrix type="matrix" values="0 0 0 0 0 0 0 0 0 0 0 0 0 0 0 0 0 0 0.25 0"/>
<feBlend mode="normal" in2="BackgroundImageFix" result="effect1_dropShadow_702_8577"/>
<feBlend mode="normal" in="SourceGraphic" in2="effect1_dropShadow_702_8577" result="shape"/>
</filter>
</defs>
</svg>
