<svg width="122" height="68" viewBox="0 0 122 68" fill="none" xmlns="http://www.w3.org/2000/svg">
<path d="M0.000701607 56.0019C-0.0129922 54.9431 0.17388 53.8912 0.551575 52.9009C0.883839 51.9956 1.40297 51.1692 2.07566 50.4749C2.75556 49.7739 3.57472 49.2211 4.48114 48.8514C5.4647 48.4683 6.50968 48.2644 7.56602 48.2494C8.81105 48.2254 10.0516 48.4041 11.2385 48.7784V52.4267C10.4239 52.0242 9.53834 51.7826 8.63104 51.7153C7.84308 51.6472 7.0501 51.766 6.31738 52.0618C5.62961 52.3504 5.04672 52.8404 4.6464 53.4664C4.23657 54.2201 4.02199 55.0632 4.02199 55.9199C4.02199 56.7765 4.23657 57.6196 4.6464 58.3733C5.04672 58.9993 5.62961 59.4893 6.31738 59.7779C7.03279 60.093 7.81273 60.2367 8.59432 60.1974C9.50161 60.1301 10.3871 59.8885 11.2018 59.486V63.1343C10.0149 63.5086 8.77432 63.6873 7.5293 63.6633C6.47296 63.6483 5.42797 63.4444 4.44441 63.0613C3.53799 62.6916 2.71884 62.1387 2.03893 61.4378C1.38795 60.7615 0.881947 59.961 0.551575 59.0847C0.175722 58.1003 -0.0111261 57.0547 0.000701607 56.0019Z" fill="#183059"/>
<path d="M20.9522 63.4808V62.8242C20.5784 63.138 20.1486 63.3793 19.6852 63.5356C19.2081 63.7058 18.7048 63.7922 18.1978 63.791C17.4647 63.7959 16.7388 63.6467 16.0678 63.3532C15.3756 63.0793 14.7498 62.6627 14.2316 62.131C13.7369 61.5637 13.3566 60.9073 13.1115 60.1974C12.524 58.6138 12.524 56.8741 13.1115 55.2905C13.3824 54.6093 13.7883 53.989 14.305 53.4664C15.3266 52.4309 16.7201 51.8405 18.1795 51.8247C18.6923 51.825 19.2014 51.9113 19.6852 52.0801C20.1444 52.2374 20.5729 52.4718 20.9522 52.7733V52.1348H24.6247V63.4808H20.9522ZM18.6936 60.5805C19.0171 60.5883 19.338 60.5216 19.6311 60.3855C19.9242 60.2494 20.1816 60.0477 20.383 59.7961C20.8442 59.2237 21.0793 58.5037 21.044 57.7713C21.0799 57.0445 20.8445 56.33 20.383 55.7648C20.1806 55.5155 19.9226 55.3165 19.6294 55.1835C19.3362 55.0505 19.0158 54.9873 18.6936 54.9987C18.3676 54.985 18.0428 55.0452 17.7437 55.1747C17.4446 55.3043 17.1792 55.4999 16.9676 55.7466C16.561 56.348 16.3439 57.056 16.3439 57.7805C16.3439 58.5049 16.561 59.2129 16.9676 59.8144C17.1756 60.0665 17.4399 60.267 17.7395 60.4C18.0391 60.533 18.3658 60.5948 18.6936 60.5805Z" fill="#183059"/>
<path d="M30.7025 67.0014H27.03V52.0983H30.7025V52.7368C31.0818 52.4354 31.5104 52.2009 31.9695 52.0436C32.4529 51.8732 32.9623 51.7868 33.4752 51.7882C34.1963 51.7857 34.9097 51.9349 35.5686 52.226C36.2648 52.4834 36.8929 52.8951 37.4048 53.43C37.9215 53.9525 38.3274 54.5728 38.5984 55.2541C38.8991 56.034 39.0486 56.8633 39.0391 57.6984C39.0483 58.5546 38.886 59.4041 38.5616 60.1974C38.2907 60.8787 37.8848 61.499 37.3681 62.0216C36.8585 62.5723 36.231 63.0025 35.5318 63.2802C34.8614 63.5754 34.1351 63.7246 33.4018 63.718C32.895 63.7178 32.3919 63.6314 31.9144 63.4626C31.4585 63.302 31.0355 63.061 30.6658 62.7512V66.9285L30.7025 67.0014ZM33.0529 60.5805C33.3781 60.5948 33.7021 60.5329 33.9988 60.3998C34.2954 60.2668 34.5564 60.0662 34.7606 59.8144C35.1672 59.213 35.3843 58.5049 35.3843 57.7805C35.3843 57.056 35.1672 56.348 34.7606 55.7466C34.5454 55.5085 34.2821 55.3181 33.9878 55.1877C33.6936 55.0574 33.3751 54.99 33.0529 54.99C32.7308 54.99 32.4122 55.0574 32.118 55.1877C31.8238 55.3181 31.5605 55.5085 31.3452 55.7466C30.8977 56.3183 30.6698 57.0297 30.7025 57.7531C30.6288 58.4729 30.8106 59.1956 31.2167 59.7961C31.4337 60.0674 31.715 60.2809 32.0354 60.4178C32.3559 60.5547 32.7054 60.6106 33.0529 60.5805Z" fill="#183059"/>
<path d="M42.7301 50.8032C42.3235 50.8043 41.9241 50.6972 41.5733 50.4931C41.2332 50.2923 40.9491 50.0101 40.747 49.6722C40.5333 49.3407 40.4246 48.9531 40.4348 48.5595C40.4223 48.1657 40.5312 47.7775 40.747 47.4468C40.9491 47.1089 41.2332 46.8267 41.5733 46.626C41.9256 46.4274 42.3251 46.3266 42.7301 46.3341C43.1293 46.3262 43.5231 46.4272 43.8686 46.626C44.2101 46.8312 44.4992 47.1122 44.7133 47.4468C44.921 47.781 45.0292 48.1668 45.0254 48.5595C45.0263 48.9519 44.9183 49.3369 44.7133 49.6722C44.4992 50.0069 44.2101 50.2878 43.8686 50.4931C43.5245 50.6974 43.1309 50.8046 42.7301 50.8032ZM40.8939 63.4809V52.0983H44.5664V63.4809H40.8939Z" fill="#183059"/>
<path d="M48.2938 63.4808V55.3453H46.4575V52.0983H48.2938V49.052H51.9662V52.0983H54.0596V55.3453H51.9479V63.4808H48.2754H48.2938Z" fill="#183059"/>
<path d="M63.351 63.4808V62.8242C62.9812 63.134 62.5582 63.375 62.1023 63.5356C61.6217 63.723 61.1126 63.8278 60.5966 63.8457C59.8634 63.8506 59.1375 63.7014 58.4665 63.4079C57.7744 63.134 57.1485 62.7175 56.6303 62.1857C56.1295 61.6022 55.7489 60.9267 55.5102 60.1974C54.94 58.6108 54.94 56.8771 55.5102 55.2905C55.7811 54.6093 56.187 53.989 56.7038 53.4664C57.7253 52.4309 59.1188 51.8405 60.5782 51.8247C61.091 51.825 61.6001 51.9113 62.084 52.0801C62.5431 52.2374 62.9717 52.4718 63.351 52.7733V52.1348H67.0234V63.4808H63.351ZM61.0924 60.5805C61.4181 60.5857 61.7407 60.5178 62.0364 60.382C62.3321 60.2462 62.5931 60.046 62.8001 59.7961C63.2475 59.2173 63.475 58.5004 63.4428 57.7713C63.4754 57.0479 63.2476 56.3365 62.8001 55.7648C62.5832 55.5263 62.3183 55.3356 62.0225 55.205C61.7268 55.0745 61.4068 55.0071 61.0832 55.0071C60.7596 55.0071 60.4396 55.0745 60.1438 55.205C59.8481 55.3356 59.5832 55.5263 59.3663 55.7648C58.9598 56.3662 58.7426 57.0743 58.7426 57.7987C58.7426 58.5231 58.9598 59.2312 59.3663 59.8326C59.5762 60.0814 59.8413 60.2785 60.1408 60.4083C60.4403 60.538 60.766 60.597 61.0924 60.5805Z" fill="#183059"/>
<path d="M69.5576 63.4809V47.4286H73.2301V63.4809H69.5576Z" fill="#183059"/>
<path d="M82.1541 57.1512H78.4816V63.4809H76.3516V47.8299H81.5665C83.0324 47.7326 84.4849 48.1596 85.6613 49.0338C86.4638 49.8097 86.9674 50.8402 87.0848 51.9464C87.2022 53.0527 86.9259 54.1649 86.304 55.0899C85.74 55.8283 84.9756 56.3915 84.1005 56.7134L87.773 63.3532V63.4809H85.5695L82.1541 57.1512ZM78.4816 55.4547H81.6767C82.5477 55.5181 83.4114 55.2581 84.1005 54.7251C84.4012 54.4615 84.6395 54.1351 84.7982 53.7693C84.957 53.4034 85.0322 53.0072 85.0186 52.6091C85.0458 52.1938 84.9809 51.7777 84.8287 51.3901C84.6764 51.0024 84.4403 50.6526 84.1372 50.3654C83.4253 49.8036 82.529 49.5242 81.6216 49.5811H78.4449L78.4816 55.4547Z" fill="#183059"/>
<path d="M94.5671 63.6997C93.848 63.725 93.1316 63.6 92.4642 63.333C91.7968 63.0659 91.1933 62.6626 90.6926 62.1492C90.1769 61.5896 89.7782 60.9338 89.5197 60.2198C89.2612 59.5059 89.1481 58.748 89.1869 57.9902V57.6254C89.1641 56.553 89.3969 55.4904 89.8663 54.5244C90.2734 53.6664 90.9082 52.9348 91.7025 52.4084C92.4646 51.8902 93.3682 51.6164 94.2917 51.624C94.9578 51.5907 95.6229 51.708 96.2368 51.9671C96.8507 52.2262 97.3973 52.6203 97.8356 53.1198C98.7746 54.3475 99.2433 55.867 99.1577 57.4065V58.2274H91.1884C91.1751 59.2482 91.5338 60.2395 92.1983 61.0183C92.5119 61.3597 92.8953 61.6308 93.3228 61.8132C93.7503 61.9957 94.2121 62.0854 94.6773 62.0763C95.3188 62.1067 95.9558 61.9548 96.5135 61.6385C97.0116 61.3477 97.4482 60.9636 97.7989 60.5075L99.0292 61.4378C98.5603 62.1799 97.8979 62.7821 97.1123 63.1803C96.3266 63.5786 95.4471 63.758 94.5671 63.6997ZM94.31 53.2658C93.927 53.2586 93.5469 53.333 93.1954 53.4841C92.8438 53.6351 92.5288 53.8592 92.2718 54.1413C91.6883 54.8183 91.3349 55.661 91.2619 56.5492H97.1195V56.385C97.1197 55.539 96.8353 54.7172 96.3115 54.0501C96.0579 53.7795 95.7465 53.5685 95.4002 53.4328C95.0539 53.2971 94.6814 53.24 94.31 53.2658Z" fill="#183059"/>
<path d="M105.162 60.7812L108.064 51.843H110.175L105.915 63.4809H104.391L100.149 51.843H102.188L105.162 60.7812Z" fill="#183059"/>
<path d="M111.35 57.5525C111.326 56.4936 111.552 55.4438 112.011 54.4879C112.404 53.6208 113.042 52.8856 113.848 52.3719C114.677 51.8702 115.631 51.611 116.602 51.6241C117.331 51.598 118.057 51.7335 118.727 52.0206C119.398 52.3077 119.995 52.7392 120.476 53.284C121.504 54.5003 122.029 56.0582 121.945 57.6437V57.7896C121.96 58.8397 121.741 59.88 121.303 60.8359C120.904 61.6947 120.267 62.4225 119.467 62.9336C118.624 63.4537 117.648 63.7198 116.657 63.6997C115.931 63.7243 115.208 63.5881 114.541 63.301C113.874 63.0139 113.28 62.5831 112.801 62.0398C111.781 60.8264 111.257 59.2772 111.332 57.6984L111.35 57.5525ZM113.352 57.7896C113.297 58.8966 113.62 59.9896 114.27 60.8906C114.555 61.2577 114.92 61.5551 115.339 61.7596C115.758 61.9642 116.218 62.0706 116.685 62.0706C117.151 62.0706 117.612 61.9642 118.03 61.7596C118.449 61.5551 118.815 61.2577 119.099 60.8906C119.754 59.9036 120.07 58.7325 119.999 57.5525C120.056 56.4453 119.732 55.3518 119.081 54.4514C118.804 54.0733 118.439 53.7678 118.016 53.5612C117.594 53.3547 117.128 53.2533 116.657 53.2658C116.194 53.2525 115.734 53.3519 115.318 53.5553C114.902 53.7588 114.542 54.0602 114.27 54.4332C113.605 55.423 113.282 56.6014 113.352 57.7896Z" fill="#183059"/>
<path d="M55.7673 0.00141272H52.664C50.4661 0.0398408 48.2939 0.478827 46.2555 1.29654C44.3862 2.04437 42.6968 3.17565 41.2977 4.61644C39.9077 6.07498 38.8219 7.7922 38.1026 9.66926C37.3325 11.7159 36.9526 13.8871 36.9825 16.0719C36.9512 18.2628 37.331 20.4402 38.1026 22.4928C38.8174 24.3667 39.9039 26.0788 41.2977 27.5274C42.6961 28.9735 44.3853 30.1109 46.2555 30.8656C48.295 31.6774 50.4672 32.1102 52.664 32.1424C54.5951 32.1453 56.5192 31.9125 58.3931 31.4493C60.3659 30.9489 62.3092 30.3399 64.214 29.6252C64.9324 29.3083 65.5481 28.7994 65.9923 28.1552C66.4365 27.511 66.6918 26.7569 66.7296 25.9769V21.3984H70.0165C71.0265 23.2225 72.0364 25.0466 73.028 26.8707L74.8642 30.2271C75.2359 30.8172 75.7454 31.3095 76.3497 31.662C76.9539 32.0145 77.6349 32.2169 78.3347 32.2519H85.3124C84.0454 30.1542 82.7784 28.0017 81.493 25.8492L77.6737 19.3736C78.9892 18.4646 80.0608 17.2497 80.7953 15.8348C81.5596 14.3187 81.9439 12.6415 81.9154 10.9461C81.9579 8.94089 81.4364 6.96361 80.4097 5.23664C79.4121 3.57674 77.9515 2.2398 76.2047 1.38775C74.2299 0.443525 72.061 -0.0311086 69.8696 0.00141272H58.3931V24.0251C57.2422 24.4545 56.0374 24.7246 54.8124 24.8277C53.1671 24.9705 51.5113 24.7203 49.9831 24.0981C48.5598 23.5065 47.3545 22.4938 46.531 21.1977C45.6198 19.6589 45.1736 17.8922 45.2456 16.1084C45.1646 14.3006 45.6109 12.508 46.531 10.9461C47.365 9.65922 48.5672 8.64923 49.9831 8.04579C51.5137 7.43222 53.1674 7.18237 54.8124 7.31614C55.1246 7.31614 55.4368 7.44383 55.7673 7.48031V0.00141272ZM72.6791 13.4817C72.4026 13.8327 72.0483 14.1157 71.6439 14.3086C71.2395 14.5016 70.7957 14.5994 70.347 14.5944H66.6746V7.5168H69.8145C70.3141 7.48714 70.8145 7.55922 71.2849 7.7286C71.7554 7.89799 72.1861 8.16111 72.5505 8.50182C72.8757 8.82177 73.134 9.20245 73.3105 9.62195C73.4869 10.0415 73.5781 10.4915 73.5788 10.9461C73.6148 11.8743 73.293 12.7811 72.6791 13.4817Z" fill="#183059"/>
</svg>
