<svg width="18" height="18" viewBox="0 0 18 18" fill="none" xmlns="http://www.w3.org/2000/svg">
<path d="M9.00001 2.25C8.04751 2.25 7.20001 2.85 6.88501 3.75H2.25001V5.25H3.71251L1.50001 10.5C1.14751 12 2.25001 12.75 4.12501 12.75C6.00001 12.75 7.17001 12 6.75001 10.5L4.53751 5.25H6.87751C7.12501 5.8875 7.61251 6.375 8.25001 6.6225V15H1.50001V16.5H16.5V15H9.75001V6.615C10.3875 6.375 10.875 5.8875 11.115 5.25H13.4625L11.25 10.5C10.8975 12 12 12.75 13.875 12.75C15.75 12.75 16.92 12 16.5 10.5L14.2875 5.25H15.75V3.75H11.1225C10.8 2.85 9.95251 2.25 9.00001 2.25ZM9.00001 3.75C9.19892 3.75 9.38969 3.82902 9.53034 3.96967C9.67099 4.11032 9.75001 4.30109 9.75001 4.5C9.75001 4.69891 9.67099 4.88968 9.53034 5.03033C9.38969 5.17098 9.19892 5.25 9.00001 5.25C8.8011 5.25 8.61033 5.17098 8.46968 5.03033C8.32903 4.88968 8.25001 4.69891 8.25001 4.5C8.25001 4.30109 8.32903 4.11032 8.46968 3.96967C8.61033 3.82902 8.8011 3.75 9.00001 3.75ZM4.12501 7.6875L5.25001 10.5H3.00001L4.12501 7.6875ZM13.875 7.6875L15 10.5H12.75L13.875 7.6875Z" fill="#343A40"/>
</svg>
