<svg width="18" height="18" viewBox="0 0 18 18" fill="none" xmlns="http://www.w3.org/2000/svg">
<path d="M9 12C8.40326 12 7.83097 11.7629 7.40901 11.341C6.98705 10.919 6.75 10.3467 6.75 9.75C6.75 8.91 7.2075 8.175 7.875 7.7925L15.1575 3.5775L11.01 10.7625C10.635 11.4975 9.8775 12 9 12ZM9 2.25C10.3575 2.25 11.625 2.625 12.7275 3.24L11.1525 4.1475C10.5 3.8925 9.75 3.75 9 3.75C7.4087 3.75 5.88258 4.38214 4.75736 5.50736C3.63214 6.63258 3 8.1587 3 9.75C3 11.4075 3.6675 12.9075 4.755 13.9875H4.7625C5.055 14.28 5.055 14.7525 4.7625 15.045C4.47 15.3375 3.99 15.3375 3.6975 15.0525C2.34 13.695 1.5 11.82 1.5 9.75C1.5 7.76088 2.29018 5.85322 3.6967 4.4467C5.10322 3.04018 7.01088 2.25 9 2.25ZM16.5 9.75C16.5 11.82 15.66 13.695 14.3025 15.0525C14.01 15.3375 13.5375 15.3375 13.245 15.045C12.9525 14.7525 12.9525 14.28 13.245 13.9875C14.3325 12.9 15 11.4075 15 9.75C15 9 14.8575 8.25 14.595 7.575L15.5025 6C16.125 7.125 16.5 8.385 16.5 9.75Z" fill="#343A40"/>
</svg>
