<?xml version="1.0" encoding="UTF-8"?>
<svg id="Layer_2" data-name="Layer 2" xmlns="http://www.w3.org/2000/svg" viewBox="0 0 1278 382.97">
  <defs>
    <style>
      .cls-1 {
        fill: #fff;
      }

      .cls-2 {
        fill: #e57630;
      }
    </style>
  </defs>
  <g id="Layer_1-2" data-name="Layer 1">
    <g>
      <g>
        <path class="cls-1" d="m301.97,147.19V36.65h-20.12V0h-11.86v36.65h-20.12v140.61c-4.04,2.01-8.15,3.99-12.31,5.92-8.73,4.06-17.44,7.81-26.06,11.24v-108.62h-20.12v-49.15h-11.86v49.15h-20.12v125.92c-13.33,3.52-26.19,6.18-38.37,7.98v-84.49h-20.12V36.65h-11.86v98.56h-20.12v86.46c-25.18-2.61-43.26-11.42-50.34-26.65-4.87-10.48-4.06-22.98,1.56-36.58C2.23,181.87-4.63,203.94,3.2,220.79c18.98,40.84,117.02,35.55,218.98-11.83,75.8-35.22,132.42-83.78,148.7-123.16-15.48,20.27-39.24,41.56-68.92,61.4Z"/>
        <path class="cls-2" d="m159.39,346.13h20.12v36.84h11.86v-36.84h20.12v-118.25c-17.7,7.74-35.2,14.2-52.1,19.35v98.9Z"/>
        <path class="cls-2" d="m68.92,308.22h20.12v74.75h11.86v-74.75h20.12v-51.29c-18.91,3.73-36.5,5.56-52.1,5.44v45.86Z"/>
        <path class="cls-2" d="m249.87,308.22h20.12v74.75h11.86v-74.75h20.12v-131.93c-15.49,11.43-33,22.54-52.1,32.88v99.05Z"/>
      </g>
      <g>
        <path class="cls-1" d="m393.85,176.14c0-6.45,1.16-12.87,3.48-19.27,2.32-6.4,5.67-12.14,10.05-17.23,4.38-5.09,9.75-9.19,16.1-12.32,6.35-3.12,13.55-4.69,21.62-4.69,9.57,0,17.81,2.17,24.72,6.5,6.9,4.33,12.07,9.98,15.49,16.93l-13.3,8.92c-1.41-3.22-3.17-5.94-5.29-8.16-2.12-2.22-4.41-3.98-6.88-5.29-2.47-1.31-5.01-2.24-7.63-2.8-2.62-.55-5.19-.83-7.71-.83-5.44,0-10.26,1.13-14.44,3.4-4.18,2.27-7.69,5.27-10.51,8.99-2.82,3.73-4.94,7.91-6.35,12.55-1.41,4.64-2.12,9.27-2.12,13.91,0,5.24.83,10.23,2.49,14.97,1.66,4.74,4.01,8.92,7.03,12.55,3.02,3.63,6.6,6.53,10.73,8.69,4.13,2.17,8.67,3.25,13.6,3.25,2.52,0,5.16-.33,7.94-.98,2.77-.65,5.39-1.71,7.86-3.17,2.47-1.46,4.76-3.3,6.88-5.52,2.12-2.22,3.88-4.89,5.29-8.01l14.06,8.01c-1.71,4.03-4.11,7.58-7.18,10.66-3.08,3.08-6.53,5.67-10.36,7.79-3.83,2.12-7.91,3.73-12.24,4.84-4.33,1.11-8.62,1.66-12.85,1.66-7.46,0-14.26-1.61-20.41-4.84-6.15-3.22-11.46-7.43-15.95-12.62-4.49-5.19-7.96-11.08-10.43-17.69-2.47-6.6-3.7-13.33-3.7-20.18Z"/>
        <path class="cls-1" d="m529.29,232.07c-3.83,0-7.38-.63-10.66-1.89-3.28-1.26-6.1-3-8.47-5.22-2.37-2.22-4.23-4.84-5.59-7.86s-2.04-6.3-2.04-9.82c0-3.73.81-7.1,2.42-10.13,1.61-3.02,3.9-5.64,6.88-7.86,2.97-2.22,6.5-3.93,10.58-5.14s8.59-1.81,13.53-1.81c3.73,0,7.41.33,11.04.98,3.63.66,6.9,1.54,9.83,2.65v-5.44c0-5.84-1.66-10.4-4.99-13.68-3.33-3.27-8.11-4.91-14.36-4.91-4.23,0-8.39.78-12.47,2.34-4.08,1.56-8.29,3.8-12.62,6.73l-5.14-10.58c10.18-6.85,20.76-10.28,31.74-10.28s19.35,2.77,25.4,8.31c6.05,5.54,9.07,13.51,9.07,23.88v28.57c0,1.92.35,3.28,1.06,4.08.7.81,1.91,1.26,3.63,1.36v14.21c-1.61.3-3.1.5-4.46.6-1.36.1-2.6.15-3.7.15-3.23-.2-5.67-1.06-7.33-2.57-1.66-1.51-2.7-3.53-3.1-6.05l-.45-4.99c-3.53,4.64-7.89,8.19-13.08,10.66-5.19,2.47-10.76,3.7-16.7,3.7Zm4.54-12.24c4.03,0,7.83-.73,11.41-2.19,3.58-1.46,6.37-3.5,8.39-6.12,2.12-1.81,3.17-3.73,3.17-5.74v-10.43c-2.82-1.11-5.82-1.97-8.99-2.57-3.17-.6-6.27-.91-9.3-.91-5.95,0-10.81,1.28-14.59,3.85-3.78,2.57-5.67,5.97-5.67,10.2,0,3.93,1.46,7.23,4.38,9.9,2.92,2.67,6.65,4.01,11.19,4.01Z"/>
        <path class="cls-1" d="m646.14,232.07c-6.35,0-11.92-1.51-16.7-4.54-4.79-3.02-8.64-6.95-11.56-11.79v47.01h-16.63v-111.26h14.66v14.21c3.02-4.74,6.95-8.52,11.79-11.34,4.84-2.82,10.28-4.23,16.33-4.23,5.34,0,10.28,1.11,14.81,3.33,4.54,2.22,8.47,5.19,11.79,8.92,3.33,3.73,5.92,8.06,7.79,13,1.86,4.94,2.8,10.13,2.8,15.57,0,5.74-.86,11.11-2.57,16.1-1.71,4.99-4.13,9.32-7.26,13-3.13,3.68-6.83,6.6-11.11,8.77-4.28,2.17-8.99,3.25-14.13,3.25Zm-5.29-14.21c3.42,0,6.6-.76,9.52-2.27,2.92-1.51,5.39-3.53,7.41-6.05,2.02-2.52,3.6-5.39,4.76-8.62,1.16-3.22,1.74-6.55,1.74-9.98,0-3.63-.63-7.05-1.89-10.28-1.26-3.22-3-6.05-5.22-8.47-2.22-2.42-4.84-4.33-7.86-5.74-3.02-1.41-6.25-2.12-9.67-2.12-2.12,0-4.33.4-6.65,1.21-2.32.81-4.51,1.91-6.58,3.33-2.07,1.41-3.85,3.05-5.37,4.91-1.51,1.87-2.57,3.91-3.17,6.12v20.71c1.01,2.42,2.32,4.69,3.93,6.8,1.61,2.12,3.42,3.93,5.44,5.44,2.01,1.51,4.18,2.72,6.5,3.63,2.32.91,4.69,1.36,7.1,1.36Z"/>
        <path class="cls-1" d="m703.43,138.5v-18.29h16.63v18.29h-16.63Zm0,92.06v-79.06h16.63v79.06h-16.63Z"/>
        <path class="cls-1" d="m791.41,226.48c-2.22,1.01-5.17,2.14-8.84,3.4-3.68,1.26-7.69,1.89-12.02,1.89-2.62,0-5.06-.35-7.33-1.06-2.27-.7-4.28-1.76-6.05-3.17-1.76-1.41-3.15-3.25-4.16-5.52-1.01-2.27-1.51-5.01-1.51-8.24v-49.43h-10.58v-12.85h10.58v-26h16.63v26h17.23v12.85h-17.23v44.14c0,2.82.81,4.86,2.42,6.12,1.61,1.26,3.58,1.89,5.9,1.89s4.54-.4,6.65-1.21c2.12-.8,3.68-1.46,4.69-1.97l3.63,13.15Z"/>
        <path class="cls-1" d="m831.01,232.07c-3.83,0-7.38-.63-10.66-1.89-3.28-1.26-6.1-3-8.46-5.22-2.37-2.22-4.23-4.84-5.59-7.86-1.36-3.02-2.04-6.3-2.04-9.82,0-3.73.8-7.1,2.42-10.13,1.61-3.02,3.9-5.64,6.88-7.86,2.97-2.22,6.5-3.93,10.58-5.14,4.08-1.21,8.59-1.81,13.53-1.81,3.73,0,7.41.33,11.04.98,3.63.66,6.9,1.54,9.83,2.65v-5.44c0-5.84-1.66-10.4-4.99-13.68-3.33-3.27-8.11-4.91-14.36-4.91-4.23,0-8.39.78-12.47,2.34-4.08,1.56-8.29,3.8-12.62,6.73l-5.14-10.58c10.18-6.85,20.76-10.28,31.74-10.28s19.35,2.77,25.4,8.31c6.05,5.54,9.07,13.51,9.07,23.88v28.57c0,1.92.35,3.28,1.06,4.08.7.81,1.91,1.26,3.63,1.36v14.21c-1.61.3-3.1.5-4.46.6-1.36.1-2.6.15-3.7.15-3.23-.2-5.67-1.06-7.33-2.57-1.66-1.51-2.7-3.53-3.1-6.05l-.45-4.99c-3.53,4.64-7.89,8.19-13.08,10.66-5.19,2.47-10.76,3.7-16.7,3.7Zm4.54-12.24c4.03,0,7.83-.73,11.41-2.19,3.58-1.46,6.37-3.5,8.39-6.12,2.12-1.81,3.17-3.73,3.17-5.74v-10.43c-2.82-1.11-5.82-1.97-8.99-2.57s-6.27-.91-9.3-.91c-5.95,0-10.81,1.28-14.59,3.85-3.78,2.57-5.67,5.97-5.67,10.2,0,3.93,1.46,7.23,4.38,9.9,2.92,2.67,6.65,4.01,11.19,4.01Z"/>
        <path class="cls-1" d="m903.12,120.21h16.63v87.07c0,2.92.76,5.21,2.27,6.88s3.63,2.49,6.35,2.49c1.11,0,2.42-.17,3.93-.53,1.51-.35,2.92-.83,4.23-1.44l2.42,13.45c-2.42,1.11-5.29,1.99-8.62,2.65-3.33.65-6.3.98-8.92.98-5.74,0-10.23-1.56-13.45-4.69-3.23-3.12-4.84-7.56-4.84-13.3v-93.57Z"/>
        <path class="cls-1" d="m1000.01,165.86c-6.45.2-12.15,1.69-17.08,4.46-4.94,2.77-8.52,6.73-10.73,11.87v48.37h-16.63v-79.06h15.42v17.69c2.82-5.44,6.42-9.88,10.81-13.3,4.38-3.43,9.04-5.14,13.98-5.14h2.49c.65,0,1.23.05,1.74.15v14.97Z"/>
        <path class="cls-1" d="m1055.79,232.07c-6.15,0-11.74-1.08-16.78-3.25-5.04-2.17-9.35-5.11-12.92-8.84-3.58-3.73-6.35-8.06-8.31-13-1.97-4.94-2.95-10.18-2.95-15.72s.98-10.81,2.95-15.8c1.97-4.99,4.74-9.37,8.31-13.15,3.58-3.78,7.88-6.75,12.92-8.92,5.04-2.17,10.68-3.25,16.93-3.25s11.72,1.11,16.7,3.33c4.99,2.22,9.25,5.16,12.77,8.84,3.53,3.68,6.22,7.96,8.09,12.85,1.86,4.89,2.8,10,2.8,15.34,0,1.21-.05,2.34-.15,3.4-.1,1.06-.2,1.94-.3,2.64h-63.34c.3,3.53,1.13,6.7,2.49,9.52,1.36,2.82,3.12,5.27,5.29,7.33,2.17,2.07,4.63,3.65,7.41,4.76,2.77,1.11,5.67,1.66,8.69,1.66,2.22,0,4.41-.28,6.58-.83,2.17-.55,4.16-1.36,5.97-2.42s3.42-2.34,4.84-3.85c1.41-1.51,2.52-3.17,3.33-4.99l14.21,4.08c-2.72,5.95-7.23,10.81-13.53,14.59-6.3,3.78-13.63,5.67-21.99,5.67Zm24.03-47.01c-.3-3.33-1.13-6.4-2.49-9.22-1.36-2.82-3.1-5.22-5.22-7.18-2.12-1.97-4.59-3.5-7.41-4.61-2.82-1.11-5.8-1.66-8.92-1.66s-6.07.55-8.84,1.66c-2.77,1.11-5.22,2.65-7.33,4.61-2.12,1.96-3.83,4.36-5.14,7.18-1.31,2.82-2.12,5.9-2.42,9.22h47.77Z"/>
        <path class="cls-1" d="m1137.12,230.56l-30.23-79.06h17.23l22.52,65,22.83-65h15.72l-30.23,79.06h-17.84Z"/>
        <path class="cls-1" d="m1237.34,232.07c-6.25,0-11.87-1.11-16.86-3.33-4.99-2.22-9.25-5.19-12.77-8.92-3.53-3.73-6.25-8.09-8.16-13.07-1.92-4.99-2.87-10.2-2.87-15.65s.96-10.66,2.87-15.65c1.91-4.99,4.66-9.35,8.24-13.07,3.58-3.73,7.86-6.7,12.85-8.92,4.99-2.22,10.56-3.33,16.7-3.33s11.72,1.11,16.7,3.33c4.99,2.22,9.27,5.19,12.85,8.92,3.58,3.73,6.32,8.09,8.24,13.07,1.91,4.99,2.87,10.2,2.87,15.65s-.96,10.66-2.87,15.65c-1.92,4.99-4.66,9.35-8.24,13.07-3.58,3.73-7.86,6.7-12.85,8.92-4.99,2.22-10.56,3.33-16.7,3.33Zm-23.58-40.81c0,3.83.6,7.36,1.81,10.58,1.21,3.23,2.87,6.02,4.99,8.39,2.12,2.37,4.61,4.23,7.48,5.59,2.87,1.36,5.97,2.04,9.3,2.04s6.42-.68,9.3-2.04c2.87-1.36,5.37-3.25,7.48-5.67,2.12-2.42,3.78-5.24,4.99-8.47,1.21-3.22,1.81-6.75,1.81-10.58s-.6-7.23-1.81-10.51c-1.21-3.27-2.87-6.12-4.99-8.54-2.12-2.42-4.61-4.31-7.48-5.67-2.87-1.36-5.97-2.04-9.3-2.04s-6.27.71-9.15,2.12c-2.87,1.41-5.37,3.32-7.48,5.74s-3.8,5.27-5.06,8.54c-1.26,3.28-1.89,6.78-1.89,10.51Z"/>
      </g>
    </g>
  </g>
</svg>