<svg width="122" height="67" viewBox="0 0 122 67" fill="none" xmlns="http://www.w3.org/2000/svg">
<path d="M3.02207e-05 56.0005C-0.0136636 54.9417 0.173208 53.8897 0.550903 52.8995C0.883168 51.9941 1.4023 51.1678 2.07499 50.4734C2.75489 49.7725 3.57405 49.2197 4.48046 48.85C5.46402 48.4669 6.50901 48.263 7.56535 48.248C8.81038 48.2239 10.051 48.4026 11.2378 48.777V52.4252C10.4232 52.0228 9.53767 51.7812 8.63037 51.7138C7.8424 51.6457 7.04943 51.7645 6.31671 52.0604C5.62894 52.349 5.04605 52.8389 4.64573 53.465C4.2359 54.2187 4.02132 55.0618 4.02132 55.9184C4.02132 56.775 4.2359 57.6182 4.64573 58.3719C5.04605 58.9979 5.62894 59.4879 6.31671 59.7764C7.03212 60.0916 7.81206 60.2353 8.59365 60.196C9.50094 60.1286 10.3865 59.887 11.2011 59.4846V63.1328C10.0142 63.5072 8.77365 63.6859 7.52863 63.6618C6.47228 63.6468 5.4273 63.4429 4.44374 63.0599C3.53732 62.6902 2.71817 62.1373 2.03826 61.4364C1.38728 60.7601 0.881276 59.9596 0.550903 59.0833C0.175051 58.0989 -0.0117974 57.0533 3.02207e-05 56.0005Z" fill="white"/>
<path d="M20.9515 63.4794V62.8227C20.5777 63.1365 20.148 63.3778 19.6845 63.5341C19.2074 63.7043 18.7041 63.7907 18.1972 63.7895C17.464 63.7945 16.7381 63.6453 16.0671 63.3517C15.375 63.0778 14.7491 62.6613 14.2309 62.1295C13.7362 61.5623 13.356 60.9058 13.1108 60.196C12.5234 58.6124 12.5234 56.8727 13.1108 55.2891C13.3817 54.6078 13.7876 53.9875 14.3043 53.465C15.3259 52.4294 16.7194 51.839 18.1788 51.8232C18.6916 51.8235 19.2007 51.9099 19.6845 52.0786C20.1437 52.2359 20.5723 52.4704 20.9515 52.7718V52.1333H24.624V63.4794H20.9515ZM18.693 60.579C19.0164 60.5869 19.3373 60.5201 19.6304 60.384C19.9235 60.2479 20.1809 60.0462 20.3823 59.7947C20.8436 59.2222 21.0786 58.5023 21.0434 57.7699C21.0792 57.043 20.8439 56.3285 20.3823 55.7633C20.18 55.5141 19.922 55.315 19.6287 55.1821C19.3355 55.0491 19.0151 54.9858 18.693 54.9972C18.367 54.9835 18.0421 55.0437 17.743 55.1733C17.444 55.3029 17.1785 55.4984 16.9669 55.7451C16.5603 56.3465 16.3432 57.0546 16.3432 57.779C16.3432 58.5034 16.5603 59.2115 16.9669 59.8129C17.1749 60.0651 17.4392 60.2656 17.7388 60.3986C18.0384 60.5316 18.3651 60.5933 18.693 60.579Z" fill="white"/>
<path d="M30.702 66.9998H27.0295V52.0968H30.702V52.7352C31.0813 52.4338 31.5099 52.1993 31.969 52.042C32.4524 51.8716 32.9618 51.7852 33.4748 51.7867C34.1958 51.7841 34.9093 51.9333 35.5681 52.2244C36.2644 52.4818 36.8924 52.8936 37.4043 53.4284C37.9211 53.9509 38.3269 54.5712 38.5979 55.2525C38.8986 56.0324 39.0482 56.8617 39.0386 57.6968C39.0478 58.553 38.8855 59.4025 38.5611 60.1959C38.2902 60.8771 37.8843 61.4974 37.3676 62.02C36.858 62.5707 36.2305 63.0009 35.5313 63.2786C34.8609 63.5738 34.1346 63.7231 33.4013 63.7164C32.8945 63.7162 32.3914 63.6298 31.9139 63.461C31.458 63.3004 31.0351 63.0594 30.6653 62.7496V66.9269L30.702 66.9998ZM33.0524 60.5789C33.3776 60.5932 33.7016 60.5314 33.9983 60.3983C34.2949 60.2652 34.5559 60.0646 34.7601 59.8128C35.1667 59.2114 35.3838 58.5033 35.3838 57.7789C35.3838 57.0545 35.1667 56.3464 34.7601 55.745C34.5449 55.5069 34.2816 55.3165 33.9873 55.1861C33.6931 55.0558 33.3746 54.9884 33.0524 54.9884C32.7303 54.9884 32.4117 55.0558 32.1175 55.1861C31.8233 55.3165 31.56 55.5069 31.3447 55.745C30.8972 56.3167 30.6694 57.0281 30.702 57.7515C30.6283 58.4713 30.8101 59.194 31.2162 59.7945C31.4332 60.0658 31.7145 60.2794 32.035 60.4162C32.3554 60.5531 32.7049 60.609 33.0524 60.5789Z" fill="white"/>
<path d="M42.7294 50.8018C42.3228 50.8029 41.9234 50.6958 41.5725 50.4917C41.2324 50.2909 40.9483 50.0087 40.7462 49.6708C40.5326 49.3393 40.4239 48.9517 40.4341 48.5581C40.4216 48.1643 40.5305 47.7761 40.7462 47.4454C40.9483 47.1075 41.2324 46.8253 41.5725 46.6246C41.9248 46.426 42.3244 46.3252 42.7294 46.3327C43.1286 46.3248 43.5223 46.4258 43.8678 46.6246C44.2093 46.8298 44.4984 47.1108 44.7125 47.4454C44.9203 47.7796 45.0285 48.1654 45.0247 48.5581C45.0256 48.9505 44.9176 49.3355 44.7125 49.6708C44.4984 50.0055 44.2093 50.2864 43.8678 50.4917C43.5238 50.696 43.1302 50.8032 42.7294 50.8018ZM40.8931 63.4795V52.0969H44.5656V63.4795H40.8931Z" fill="white"/>
<path d="M48.2932 63.4793V55.3438H46.457V52.0968H48.2932V49.0505H51.9657V52.0968H54.059V55.3438H51.9473V63.4793H48.2749H48.2932Z" fill="white"/>
<path d="M63.3503 63.4794V62.8227C62.9806 63.1325 62.5576 63.3735 62.1017 63.5341C61.6211 63.7215 61.112 63.8264 60.596 63.8442C59.8628 63.8492 59.1369 63.7 58.4659 63.4064C57.7738 63.1325 57.1479 62.716 56.6297 62.1843C56.1289 61.6007 55.7483 60.9252 55.5096 60.196C54.9394 58.6094 54.9394 56.8757 55.5096 55.2891C55.7805 54.6078 56.1864 53.9875 56.7031 53.465C57.7247 52.4294 59.1182 51.839 60.5776 51.8232C61.0904 51.8235 61.5995 51.9099 62.0833 52.0786C62.5425 52.2359 62.9711 52.4704 63.3503 52.7718V52.1333H67.0228V63.4794H63.3503ZM61.0918 60.579C61.4175 60.5842 61.7401 60.5164 62.0358 60.3806C62.3315 60.2448 62.5925 60.0445 62.7995 59.7947C63.2468 59.2159 63.4744 58.4989 63.4422 57.7699C63.4748 57.0464 63.247 56.335 62.7995 55.7633C62.5826 55.5248 62.3177 55.3341 62.0219 55.2036C61.7262 55.0731 61.4062 55.0056 61.0826 55.0056C60.759 55.0056 60.439 55.0731 60.1432 55.2036C59.8475 55.3341 59.5826 55.5248 59.3657 55.7633C58.9591 56.3648 58.742 57.0728 58.742 57.7972C58.742 58.5217 58.9591 59.2297 59.3657 59.8311C59.5755 60.08 59.8406 60.277 60.1402 60.4068C60.4397 60.5366 60.7654 60.5955 61.0918 60.579Z" fill="white"/>
<path d="M69.5569 63.4793V47.427H73.2294V63.4793H69.5569Z" fill="white"/>
<path d="M82.1535 57.1496H78.481V63.4793H76.351V47.8283H81.5659C83.0317 47.731 84.4843 48.158 85.6607 49.0322C86.4632 49.8081 86.9668 50.8386 87.0842 51.9448C87.2016 53.0511 86.9253 54.1633 86.3034 55.0883C85.7394 55.8267 84.9749 56.39 84.0999 56.7118L87.7724 63.3516V63.4793H85.5689L82.1535 57.1496ZM78.481 55.4531H81.6761C82.5471 55.5166 83.4108 55.2565 84.0999 54.7235C84.4006 54.4599 84.6389 54.1335 84.7976 53.7677C84.9563 53.4019 85.0316 53.0057 85.018 52.6075C85.0452 52.1923 84.9803 51.7761 84.828 51.3885C84.6758 51.0008 84.4397 50.6511 84.1366 50.3638C83.4247 49.8021 82.5283 49.5226 81.621 49.5795H78.4443L78.481 55.4531Z" fill="white"/>
<path d="M94.5665 63.6982C93.8474 63.7234 93.131 63.5985 92.4636 63.3314C91.7962 63.0643 91.1927 62.661 90.692 62.1477C90.1762 61.5881 89.7775 60.9322 89.5191 60.2183C89.2606 59.5043 89.1475 58.7464 89.1863 57.9887V57.6239C89.1635 56.5514 89.3963 55.4889 89.8657 54.5228C90.2728 53.6648 90.9076 52.9332 91.7019 52.4069C92.464 51.8886 93.3676 51.6149 94.291 51.6225C94.9572 51.5891 95.6223 51.7064 96.2362 51.9655C96.8501 52.2246 97.3967 52.6188 97.835 53.1183C98.774 54.3459 99.2426 55.8655 99.1571 57.405V58.2258H91.1878C91.1745 59.2467 91.5332 60.2379 92.1977 61.0167C92.5113 61.3582 92.8947 61.6292 93.3222 61.8117C93.7497 61.9941 94.2115 62.0838 94.6767 62.0747C95.3182 62.1051 95.9551 61.9533 96.5129 61.6369C97.011 61.3462 97.4476 60.9621 97.7983 60.506L99.0286 61.4363C98.5597 62.1784 97.8973 62.7805 97.1116 63.1787C96.326 63.577 95.4465 63.7565 94.5665 63.6982ZM94.3094 53.2642C93.9264 53.257 93.5463 53.3315 93.1947 53.4825C92.8432 53.6335 92.5282 53.8577 92.2712 54.1398C91.6877 54.8167 91.3343 55.6594 91.2612 56.5476H97.1189V56.3835C97.1191 55.5374 96.8347 54.7156 96.3109 54.0486C96.0572 53.7779 95.7459 53.567 95.3996 53.4313C95.0533 53.2956 94.6808 53.2385 94.3094 53.2642Z" fill="white"/>
<path d="M105.162 60.7797L108.063 51.8416H110.175L105.914 63.4794H104.39L100.149 51.8416H102.187L105.162 60.7797Z" fill="white"/>
<path d="M111.35 57.5509C111.325 56.492 111.552 55.4422 112.011 54.4864C112.404 53.6192 113.042 52.8841 113.847 52.3704C114.676 51.8687 115.631 51.6095 116.602 51.6225C117.331 51.5965 118.057 51.732 118.727 52.0191C119.397 52.3062 119.994 52.7377 120.476 53.2825C121.503 54.4988 122.028 56.0566 121.945 57.6421V57.7881C121.96 58.8382 121.74 59.8785 121.302 60.8343C120.904 61.6931 120.267 62.4209 119.466 62.9321C118.624 63.4522 117.648 63.7183 116.657 63.6982C115.93 63.7228 115.207 63.5866 114.54 63.2995C113.874 63.0124 113.279 62.5816 112.8 62.0383C111.781 60.8249 111.257 59.2757 111.331 57.6969L111.35 57.5509ZM113.351 57.7881C113.296 58.8951 113.62 59.9881 114.269 60.8891C114.554 61.2562 114.92 61.5535 115.339 61.7581C115.757 61.9627 116.218 62.0691 116.684 62.0691C117.151 62.0691 117.611 61.9627 118.03 61.7581C118.448 61.5535 118.814 61.2562 119.099 60.8891C119.754 59.9021 120.069 58.731 119.999 57.5509C120.055 56.4437 119.732 55.3503 119.08 54.4499C118.804 54.0718 118.438 53.7663 118.016 53.5597C117.594 53.3531 117.127 53.2517 116.657 53.2642C116.193 53.2509 115.733 53.3503 115.317 53.5538C114.901 53.7573 114.542 54.0586 114.269 54.4317C113.604 55.4215 113.282 56.5999 113.351 57.7881Z" fill="white"/>
<path d="M55.7667 -0.000143676H52.6635C50.4655 0.0382844 48.2933 0.477271 46.255 1.29498C44.3857 2.04281 42.6962 3.17409 41.2971 4.61488C39.9072 6.07342 38.8213 7.79064 38.1021 9.6677C37.3319 11.7144 36.9521 13.8856 36.982 16.0704C36.9506 18.2612 37.3305 20.4387 38.1021 22.4913C38.8169 24.3651 39.9034 26.0772 41.2971 27.5259C42.6955 28.972 44.3848 30.1094 46.255 30.864C48.2944 31.6759 50.4666 32.1087 52.6635 32.1409C54.5945 32.1438 56.5186 31.911 58.3925 31.4477C60.3654 30.9473 62.3087 30.3384 64.2134 29.6236C64.9319 29.3068 65.5475 28.7978 65.9917 28.1536C66.4359 27.5094 66.6912 26.7553 66.7291 25.9754V21.3968H70.016C71.0259 23.2209 72.0358 25.0451 73.0274 26.8692L74.8637 30.2256C75.2353 30.8157 75.7449 31.3079 76.3491 31.6604C76.9533 32.013 77.6343 32.2153 78.3342 32.2503H85.3119C84.0449 30.1526 82.7779 28.0001 81.4925 25.8477L77.6731 19.372C78.9886 18.463 80.0603 17.2481 80.7947 15.8332C81.559 14.3171 81.9433 12.64 81.9148 10.9446C81.9573 8.93933 81.4359 6.96206 80.4091 5.23509C79.4116 3.57519 77.9509 2.23824 76.2041 1.38619C74.2293 0.441969 72.0604 -0.032665 69.8691 -0.000143676H58.3925V24.0235C57.2417 24.4529 56.0368 24.723 54.8119 24.8262C53.1666 24.969 51.5107 24.7188 49.9826 24.0965C48.5593 23.5049 47.3539 22.4922 46.5304 21.1962C45.6193 19.6574 45.1731 17.8907 45.245 16.1069C45.1641 14.299 45.6104 12.5064 46.5304 10.9446C47.3645 9.65766 48.5666 8.64767 49.9826 8.04423C51.5131 7.43067 53.1669 7.18081 54.8119 7.31459C55.124 7.31459 55.4362 7.44227 55.7667 7.47876V-0.000143676ZM72.6785 13.4801C72.402 13.8311 72.0478 14.1141 71.6433 14.3071C71.2389 14.5001 70.7951 14.5978 70.3465 14.5928H66.674V7.51524H69.814C70.3135 7.48558 70.8139 7.55766 71.2844 7.72705C71.7549 7.89644 72.1856 8.15956 72.55 8.50027C72.8752 8.82021 73.1334 9.20089 73.3099 9.62039C73.4864 10.0399 73.5776 10.4899 73.5783 10.9446C73.6142 11.8727 73.2924 12.7795 72.6785 13.4801Z" fill="white"/>
</svg>
